{
.appVersion = "3258";
.formatVersion = 3;
DisplayStrings = (
"b h"
);
axes = (
{
name = Weight;
tag = wght;
}
);
customParameters = (
{
name = "Use Typo Metrics";
value = 1;
}
);
date = "2024-02-26 13:56:12 +0000";
familyName = "Ring Link";
featurePrefixes = (
{
automatic = 1;
code = "languagesystem DFLT dflt;

languagesystem cyrl dflt;
languagesystem cyrl BGR;

languagesystem latn dflt;
languagesystem latn NLD;
";
name = Languagesystems;
}
);
features = (
{
automatic = 1;
code = "feature locl;
feature sups;
feature ordn;
";
tag = aalt;
},
{
automatic = 1;
code = "lookup ccmp_Other_1 {
	@CombiningTopAccents = [acutecomb circumflexcomb dieresiscomb dotaccentcomb gravecomb ringcomb tildecomb];
	@CombiningNonTopAccents = [cedillacomb];
	sub [i j]' @CombiningTopAccents by [idotless jdotless];
	sub [i j]' @CombiningNonTopAccents @CombiningTopAccents by [idotless jdotless];
} ccmp_Other_1;
";
tag = ccmp;
},
{
automatic = 1;
code = "sub one by onesuperior;
sub two by twosuperior;
sub three by threesuperior;
";
tag = sups;
},
{
automatic = 1;
code = "sub [zero one two three four five six seven eight nine] [A a]' by ordfeminine;
sub [zero one two three four five six seven eight nine] [O o]' by ordmasculine;
";
tag = ordn;
}
);
fontMaster = (
{
axesValues = (
28
);
customParameters = (
{
name = hheaAscender;
value = 1980;
},
{
name = hheaDescender;
value = -490;
},
{
name = hheaLineGap;
value = 310;
},
{
name = typoAscender;
value = 1980;
},
{
name = typoDescender;
value = -490;
},
{
name = typoLineGap;
value = 310;
},
{
name = winDescent;
value = 490;
}
);
iconName = Light_SemiExtended;
id = m01;
metricValues = (
{
pos = 1589;
},
{
pos = 1462;
},
{
pos = 984;
},
{
},
{
pos = -459;
}
);
name = Thin;
userData = {
GSCornerRadius = 27;
GSOffsetHorizontal = 3;
GSOffsetKeepCompatible = 1;
GSOffsetVertical = 3;
KernOnIndependentPairs = (
"n b"
);
KernOnModels = (
"i p",
"i e",
"i l",
"j i",
"o k",
"I l",
"R I",
"O H"
);
KernOnUserSetAutopairs = (
"Ge-cy shcha-cy",
"Ge-cy che-cy"

glyphs = (
{
glyphname = A;
kernLeft = "20";
kernRight = "20";
lastChange = "2024-04-18 09:39:49 +0000";
layers = (
{
anchors = (
{
name = top;
pos = (179,1546);
}
);
hints = (
{
name = _corner.serif;
origin = (1,3);
type = Corner;
},
{
name = _corner.serif;
options = 1;
origin = (3,0);
scale = (-1,1);
type = Corner;
}
);
layerId = m01;
shapes = (
{
closed = 1;
nodes = (
(72,458,l),
(72,514,o),
(120,562,o),
(179,562,cs),
(235,562,o),
(283,514,o),
(283,458,c),
(311,458,l),
(311,531,o),
(252,590,o),
(179,590,cs),
(103,590,o),
(44,531,o),
(44,458,c)
);
},
{
closed = 1;
nodes = (
(72,0,l),
(72,1329,l),
(44,1329,l),
(44,0,l)
);
},
{
closed = 1;
nodes = (
(72,1329,l),
(72,1385,o),
(120,1433,o),
(179,1433,cs),
(235,1433,o),
(283,1385,o),
(283,1329,c),
(311,1329,l),
(311,1402,o),
(252,1461,o),
(179,1461,cs),
(103,1461,o),
(44,1402,o),
(44,1329,c)
);
},
{
closed = 1;
nodes = (
(311,0,l),
(311,1329,l),
(283,1329,l),
(283,0,l)
);
}
);
width = 355;
}
);
unicode = 65;
},
{
glyphname = AE;
kernLeft = "20";
kernRight = "20";
lastChange = "2024-04-18 09:29:42 +0000";
layers = (
{
hints = (
{
name = _corner.serif;
origin = (0,42);
type = Corner;
}
);
layerId = m01;
shapes = (
{
closed = 1;
nodes = (
(72,0,l),
(72,458,ls),
(72,514,o),
(120,562,o),
(179,562,cs),
(235,562,o),
(283,514,o),
(283,458,cs),
(283,0,l),
(418,0,ls),
(491,0,o),
(550,59,o),
(550,132,c),
(522,132,l),
(522,76,o),
(474,28,o),
(418,28,cs),
(311,28,l),
(311,717,l),
(418,717,l),
(418,745,l),
(311,745,l),
(311,1329,ls),
(311,1385,o),
(359,1433,o),
(418,1433,cs),
(474,1433,o),
(522,1385,o),
(522,1329,c),
(550,1329,l),
(550,1402,o),
(491,1461,o),
(418,1461,cs),
(365,1461,o),
(320,1430,o),
(297,1388,c),
(275,1430,o),
(230,1461,o),
(179,1461,cs),
(103,1461,o),
(44,1402,o),
(44,1329,cs),
(44,0,l)
);
},
{
closed = 1;
nodes = (
(72,1329,ls),
(72,1385,o),
(120,1433,o),
(179,1433,cs),
(235,1433,o),
(283,1385,o),
(283,1329,cs),
(283,540,l),
(258,570,o),
(221,590,o),
(179,590,cs),
(134,590,o),
(98,570,o),
(72,540,c)
);
}
);
width = 580;
}
);
unicode = 198;
},
{
glyphname = B;
kernLeft = "20";
kernRight = "20";
lastChange = "2024-04-18 09:29:42 +0000";
layers = (
{
hints = (
{
name = _corner.serif;
origin = (0,17);
type = Corner;
}
);
layerId = m01;
shapes = (
{
closed = 1;
nodes = (
(179,0,ls),
(252,0,o),
(311,59,o),
(311,132,cs),
(311,1093,ls),
(311,1144,o),
(280,1189,o),
(238,1211,c),
(280,1234,o),
(311,1279,o),
(311,1329,cs),
(311,1402,o),
(252,1461,o),
(179,1461,cs),
(103,1461,o),
(44,1402,o),
(44,1329,cs),
(44,0,l)
);
},
{
closed = 1;
nodes = (
(72,1329,ls),
(72,1385,o),
(120,1433,o),
(179,1433,cs),
(235,1433,o),
(283,1385,o),
(283,1329,cs),
(283,1273,o),
(235,1225,o),
(179,1225,c),
(179,1197,l),
(235,1197,o),
(283,1149,o),
(283,1093,cs),
(283,132,ls),
(283,76,o),
(235,28,o),
(179,28,cs),
(72,28,l)
);
}
);
width = 341;
}
);
unicode = 66;
},
{
glyphname = C;
kernLeft = "20";
kernRight = "20";
lastChange = "2024-04-18 09:29:42 +0000";
layers = (
{
anchors = (
{
name = bottom;
pos = (188,14);
}
);
hints = (
{
name = _corner.serif;
origin = (0,23);
type = Corner;
}
);
layerId = m01;
shapes = (
{
closed = 1;
nodes = (
(179,0,ls),
(252,0,o),
(311,59,o),
(311,132,c),
(283,132,l),
(283,76,o),
(235,28,o),
(179,28,cs),
(72,28,l),
(72,1329,ls),
(72,1385,o),
(120,1433,o),
(179,1433,cs),
(235,1433,o),
(283,1385,o),
(283,1329,c),
(311,1329,l),
(311,1402,o),
(252,1461,o),
(179,1461,cs),
(103,1461,o),
(44,1402,o),
(44,1329,cs),
(44,0,l)
);
}
);
width = 341;
}
);
unicode = 67;
},
{
glyphname = D;
kernLeft = "20";
kernRight = "20";
lastChange = "2024-04-18 09:29:42 +0000";
layers = (
{
hints = (
{
name = _corner.serif;
origin = (0,23);
type = Corner;
}
);
layerId = m01;
shapes = (
{
closed = 1;
nodes = (
(72,0,l),
(72,1329,ls),
(72,1385,o),
(120,1433,o),
(179,1433,cs),
(235,1433,o),
(283,1385,o),
(283,1329,cs),
(283,132,ls),
(283,76,o),
(235,28,o),
(179,28,c),
(179,0,l),
(252,0,o),
(311,59,o),
(311,132,cs),
(311,1329,ls),
(311,1402,o),
(252,1461,o),
(179,1461,cs),
(103,1461,o),
(44,1402,o),
(44,1329,cs),
(44,0,l)
);
}
);
width = 341;
}
);
unicode = 68;
},
{
glyphname = Eth;
lastChange = "2024-04-18 09:29:42 +0000";
layers = (
{
hints = (
{
name = _corner.serif;
origin = (0,31);
type = Corner;
}
);
layerId = m01;
shapes = (
{
closed = 1;
nodes = (
(143,0,l),
(143,717,l),
(224,717,l),
(224,745,l),
(143,745,l),
(143,1329,ls),
(143,1385,o),
(190,1433,o),
(249,1433,cs),
(306,1433,o),
(353,1385,o),
(353,1329,cs),
(353,132,ls),
(353,76,o),
(306,28,o),
(249,28,c),
(249,0,l),
(322,0,o),
(382,59,o),
(382,132,cs),
(382,1329,ls),
(382,1402,o),
(322,1461,o),
(249,1461,cs),
(174,1461,o),
(115,1402,o),
(115,1329,cs),
(115,745,l),
(30,745,l),
(30,717,l),
(115,717,l),
(115,0,l)
);
}
);
width = 412;
}
);
unicode = 208;
},
{
glyphname = E;
kernLeft = "20";
kernRight = "20";
lastChange = "2024-04-18 09:29:42 +0000";
layers = (
{
anchors = (
{
name = top;
pos = (179,1546);
}
);
hints = (
{
name = _corner.serif;
origin = (0,27);
type = Corner;
}
);
layerId = m01;
shapes = (
{
closed = 1;
nodes = (
(179,0,ls),
(252,0,o),
(311,59,o),
(311,132,c),
(283,132,l),
(283,76,o),
(235,28,o),
(179,28,cs),
(72,28,l),
(72,717,l),
(179,717,l),
(179,745,l),
(72,745,l),
(72,1329,ls),
(72,1385,o),
(120,1433,o),
(179,1433,cs),
(235,1433,o),
(283,1385,o),
(283,1329,c),
(311,1329,l),
(311,1402,o),
(252,1461,o),
(179,1461,cs),
(103,1461,o),
(44,1402,o),
(44,1329,cs),
(44,0,l)
);
}
);
width = 341;
}
);
unicode = 69;
},
{
glyphname = F;
kernLeft = "20";
kernRight = "20";
lastChange = "2024-04-18 10:02:57 +0000";
layers = (
{
hints = (
{
name = _corner.serif;
origin = (0,19);
type = Corner;
}
);
layerId = m01;
shapes = (
{
closed = 1;
nodes = (
(72,0,l),
(72,478,l),
(179,478,l),
(179,506,l),
(72,506,l),
(72,1329,ls),
(72,1385,o),
(120,1433,o),
(179,1433,cs),
(235,1433,o),
(283,1385,o),
(283,1329,c),
(311,1329,l),
(311,1402,o),
(252,1461,o),
(179,1461,cs),
(103,1461,o),
(44,1402,o),
(44,1329,cs),
(44,0,l)
);
}
);
width = 341;
}
);
unicode = 70;
userData = {
KernOnName = F;
};
},
{
glyphname = G;
kernLeft = "20";
kernRight = "20";
lastChange = "2024-04-18 09:29:42 +0000";
layers = (
{
hints = (
{
name = _corner.serif;
origin = (0,29);
type = Corner;
}
);
layerId = m01;
shapes = (
{
closed = 1;
nodes = (
(179,0,ls),
(221,0,o),
(258,20,o),
(283,51,c),
(283,0,l),
(311,0,l),
(311,520,l),
(179,520,l),
(179,492,l),
(283,492,l),
(283,132,ls),
(283,76,o),
(235,28,o),
(179,28,cs),
(72,28,l),
(72,1329,ls),
(72,1385,o),
(120,1433,o),
(179,1433,cs),
(235,1433,o),
(283,1385,o),
(283,1329,c),
(311,1329,l),
(311,1402,o),
(252,1461,o),
(179,1461,cs),
(103,1461,o),
(44,1402,o),
(44,1329,cs),
(44,0,l)
);
}
);
width = 341;
}
);
unicode = 71;
},
{
glyphname = H;
kernLeft = "20";
kernRight = "20";
lastChange = "2024-04-18 09:43:17 +0000";
layers = (
{
hints = (
{
name = _corner.serif;
origin = (0,12);
type = Corner;
},
{
name = _corner.serif;
options = 1;
origin = (0,0);
scale = (-1,1);
type = Corner;
}
);
layerId = m01;
shapes = (
{
closed = 1;
nodes = (
(311,0,l),
(311,1461,l),
(283,1461,l),
(283,539,l),
(259,570,o),
(221,590,o),
(179,590,cs),
(135,590,o),
(96,570,o),
(72,539,c),
(72,1461,l),
(44,1461,l),
(44,0,l),
(72,0,l),
(72,458,ls),
(72,514,o),
(120,562,o),
(179,562,cs),
(235,562,o),
(283,514,o),
(283,458,cs),
(283,0,l)
);
}
);
width = 355;
}
);
unicode = 72;
userData = {
KernOnName = H;
};
},
{
glyphname = I;
kernLeft = "20";
kernRight = "20";
lastChange = "2024-04-18 09:43:17 +0000";
layers = (
{
anchors = (
{
name = top;
pos = (58,1546);
}
);
hints = (
{
name = _corner.serif;
options = 1;
origin = (0,0);
scale = (-1,1);
type = Corner;
},
{
name = _corner.serif;
options = 2;
origin = (0,1);
type = Corner;
},
{
name = _corner.serif;
options = 1;
origin = (0,2);
scale = (-1,1);
type = Corner;
},
{
name = _corner.serif;
options = 2;
origin = (0,3);
type = Corner;
}
);
layerId = m01;
shapes = (
{
closed = 1;
nodes = (
(72,0,l),
(72,1461,l),
(44,1461,l),
(44,0,l)
);
}
);
width = 116;
}
);
unicode = 73;
userData = {
KernOnName = I;
};
},
{
glyphname = IJ;
lastChange = "2024-04-18 09:29:42 +0000";
layers = (
{
hints = (
{
name = _corner.serif;
options = 1;
origin = (0,2);
scale = (-1,1);
type = Corner;
},
{
name = _corner.serif;
origin = (1,1);
type = Corner;
}
);
layerId = m01;
shapes = (
{
closed = 1;
nodes = (
(72,576,l),
(72,1461,l),
(44,1461,l),
(44,576,l)
);
},
{
closed = 1;
nodes = (
(308,132,l),
(308,1461,l),
(280,1461,l),
(280,132,l)
);
},
{
closed = 1;
nodes = (
(176,28,l),
(120,28,o),
(72,76,o),
(72,132,c),
(44,132,l),
(44,59,o),
(103,0,o),
(176,0,c)
);
},
{
closed = 1;
nodes = (
(249,0,o),
(308,59,o),
(308,132,c),
(280,132,l),
(280,76,o),
(232,28,o),
(176,28,c),
(176,0,l)
);
}
);
width = 352;
}
);
unicode = 306;
},
{
glyphname = J;
kernLeft = "20";
kernRight = "20";
lastChange = "2024-04-18 09:29:42 +0000";
layers = (
{
anchors = (
{
name = top;
pos = (232,1546);
}
);
hints = (
{
name = _corner.serif;
origin = (0,1);
type = Corner;
}
);
layerId = m01;
shapes = (
{
closed = 1;
nodes = (
(294,132,l),
(294,1461,l),
(266,1461,l),
(266,132,l)
);
},
{
closed = 1;
nodes = (
(162,28,l),
(106,28,o),
(58,76,o),
(58,132,c),
(30,132,l),
(30,59,o),
(89,0,o),
(162,0,c)
);
},
{
closed = 1;
nodes = (
(235,0,o),
(294,59,o),
(294,132,c),
(266,132,l),
(266,76,o),
(218,28,o),
(162,28,c),
(162,0,l)
);
}
);
width = 338;
}
);
unicode = 74;
},
{
glyphname = K;
kernLeft = "20";
kernRight = "20";
lastChange = "2024-04-18 09:29:42 +0000";
layers = (
{
hints = (
{
name = _corner.serif;
origin = (0,28);
type = Corner;
},
{
name = _corner.serif;
options = 1;
origin = (0,9);
scale = (-1,1);
type = Corner;
}
);
layerId = m01;
shapes = (
{
closed = 1;
nodes = (
(72,0,l),
(72,458,ls),
(72,514,o),
(120,562,o),
(179,562,cs),
(235,562,o),
(283,514,o),
(283,458,cs),
(283,0,l),
(311,0,l),
(311,458,ls),
(311,510,o),
(281,554,o),
(238,576,c),
(281,598,o),
(311,642,o),
(311,694,cs),
(311,1461,l),
(283,1461,l),
(283,694,ls),
(283,638,o),
(235,590,o),
(179,590,cs),
(135,590,o),
(96,570,o),
(72,539,c),
(72,1461,l),
(44,1461,l),
(44,0,l)
);
}
);
width = 355;
}
);
unicode = 75;
},
{
glyphname = L;
kernLeft = "20";
kernRight = "20";
lastChange = "2024-04-18 09:29:42 +0000";
layers = (
{
hints = (
{
name = _corner.serif;
origin = (0,3);
type = Corner;
}
);
layerId = m01;
shapes = (
{
closed = 1;
nodes = (
(72,0,l),
(72,1461,l),
(44,1461,l),
(44,0,l)
);
},
{
closed = 1;
nodes = (
(271,0,l),
(271,28,l),
(64,28,l),
(64,0,l)
);
}
);
width = 301;
}
);
unicode = 76;
},
{
glyphname = M;
kernLeft = "20";
kernRight = "20";
lastChange = "2024-04-18 09:29:42 +0000";
layers = (
{
hints = (
{
name = _corner.serif;
origin = (0,32);
type = Corner;
},
{
name = _corner.serif;
options = 1;
origin = (0,18);
scale = (-1,1);
type = Corner;
}
);
layerId = m01;
shapes = (
{
closed = 1;
nodes = (
(72,0,l),
(72,1329,ls),
(72,1385,o),
(120,1433,o),
(179,1433,cs),
(235,1433,o),
(283,1385,o),
(283,1329,cs),
(283,0,l),
(311,0,l),
(311,1329,ls),
(311,1385,o),
(359,1433,o),
(418,1433,cs),
(474,1433,o),
(522,1385,o),
(522,1329,cs),
(522,0,l),
(550,0,l),
(550,1329,ls),
(550,1402,o),
(491,1461,o),
(418,1461,cs),
(365,1461,o),
(320,1430,o),
(297,1388,c),
(275,1430,o),
(230,1461,o),
(179,1461,cs),
(103,1461,o),
(44,1402,o),
(44,1329,cs),
(44,0,l)
);
}
);
width = 594;
}
);
unicode = 77;
},
{
glyphname = N;
kernLeft = "20";
kernRight = "20";
lastChange = "2024-04-18 09:29:42 +0000";
layers = (
{
anchors = (
{
name = top;
pos = (176,1546);
}
);
hints = (
{
name = _corner.serif;
origin = (0,17);
type = Corner;
},
{
name = _corner.serif;
options = 1;
origin = (0,9);
scale = (-1,1);
type = Corner;
}
);
layerId = m01;
shapes = (
{
closed = 1;
nodes = (
(72,0,l),
(72,1329,ls),
(72,1385,o),
(120,1433,o),
(179,1433,cs),
(235,1433,o),
(283,1385,o),
(283,1329,cs),
(283,0,l),
(311,0,l),
(311,1329,ls),
(311,1402,o),
(252,1461,o),
(179,1461,cs),
(103,1461,o),
(44,1402,o),
(44,1329,cs),
(44,0,l)
);
}
);
width = 355;
}
);
unicode = 78;
},
{
glyphname = O;
kernLeft = "20";
kernRight = "20";
lastChange = "2024-04-18 09:43:17 +0000";
layers = (
{
anchors = (
{
name = top;
pos = (162,1546);
}
);
layerId = m01;
shapes = (
{
closed = 1;
nodes = (
(58,1329,l),
(58,1385,o),
(106,1433,o),
(165,1433,cs),
(221,1433,o),
(269,1385,o),
(269,1329,c),
(297,1329,l),
(297,1402,o),
(238,1461,o),
(165,1461,cs),
(89,1461,o),
(30,1402,o),
(30,1329,c)
);
},
{
closed = 1;
nodes = (
(238,0,o),
(297,59,o),
(297,132,c),
(269,132,l),
(269,76,o),
(221,28,o),
(165,28,cs),
(106,28,o),
(58,76,o),
(58,132,c),
(30,132,l),
(30,59,o),
(89,0,o),
(165,0,cs)
);
},
{
closed = 1;
nodes = (
(58,132,l),
(58,1329,l),
(30,1329,l),
(30,132,l)
);
},
{
closed = 1;
nodes = (
(297,132,l),
(297,1329,l),
(269,1329,l),
(269,132,l)
);
}
);
width = 327;
}
);
unicode = 79;
userData = {
KernOnName = O;
};
},
{
glyphname = Oslash;
kernLeft = "20";
kernRight = "20";
lastChange = "2024-04-18 09:29:42 +0000";
layers = (
{
layerId = m01;
shapes = (
{
closed = 1;
nodes = (
(61,0,l),
(67,39,l),
(92,14,o),
(126,0,o),
(165,0,cs),
(238,0,o),
(297,59,o),
(297,132,cs),
(297,1329,ls),
(297,1349,o),
(292,1368,o),
(286,1385,c),
(297,1461,l),
(266,1461,l),
(261,1422,l),
(235,1447,o),
(202,1461,o),
(165,1461,cs),
(89,1461,o),
(30,1402,o),
(30,1329,cs),
(30,132,ls),
(30,112,o),
(36,93,o),
(41,76,c),
(30,0,l)
);
},
{
closed = 1;
nodes = (
(126,28,o),
(92,48,o),
(75,79,c),
(269,1287,l),
(269,132,ls),
(269,76,o),
(221,28,o),
(165,28,cs)
);
},
{
closed = 1;
nodes = (
(58,1329,ls),
(58,1385,o),
(106,1433,o),
(165,1433,cs),
(202,1433,o),
(235,1413,o),
(252,1383,c),
(58,174,l)
);
}
);
width = 327;
}
);
unicode = 216;
},
{
glyphname = OE;
kernLeft = "20";
kernRight = "20";
lastChange = "2024-04-18 09:29:42 +0000";
layers = (
{
layerId = m01;
shapes = (
{
closed = 1;
nodes = (
(207,0,o),
(244,20,o),
(269,51,c),
(269,0,l),
(404,0,ls),
(477,0,o),
(536,59,o),
(536,132,c),
(508,132,l),
(508,76,o),
(460,28,o),
(404,28,cs),
(297,28,l),
(297,717,l),
(404,717,l),
(404,745,l),
(297,745,l),
(297,1329,ls),
(297,1385,o),
(345,1433,o),
(404,1433,cs),
(460,1433,o),
(508,1385,o),
(508,1329,c),
(536,1329,l),
(536,1402,o),
(477,1461,o),
(404,1461,cs),
(351,1461,o),
(306,1430,o),
(283,1388,c),
(261,1430,o),
(216,1461,o),
(165,1461,cs),
(89,1461,o),
(30,1402,o),
(30,1329,cs),
(30,132,ls),
(30,59,o),
(89,0,o),
(165,0,cs)
);
},
{
closed = 1;
nodes = (
(106,28,o),
(58,76,o),
(58,132,cs),
(58,1329,ls),
(58,1385,o),
(106,1433,o),
(165,1433,cs),
(221,1433,o),
(269,1385,o),
(269,1329,cs),
(269,132,ls),
(269,76,o),
(221,28,o),
(165,28,cs)
);
}
);
width = 566;
}
);
unicode = 338;
},
{
glyphname = P;
kernLeft = "20";
kernRight = "20";
lastChange = "2024-04-18 09:29:42 +0000";
layers = (
{
hints = (
{
name = _corner.serif;
origin = (0,15);
type = Corner;
}
);
layerId = m01;
shapes = (
{
closed = 1;
nodes = (
(72,0,l),
(72,613,l),
(98,582,o),
(134,562,o),
(179,562,cs),
(252,562,o),
(311,621,o),
(311,694,cs),
(311,1329,ls),
(311,1402,o),
(252,1461,o),
(179,1461,cs),
(103,1461,o),
(44,1402,o),
(44,1329,cs),
(44,0,l)
);
},
{
closed = 1;
nodes = (
(120,590,o),
(72,638,o),
(72,694,cs),
(72,1329,ls),
(72,1385,o),
(120,1433,o),
(179,1433,cs),
(235,1433,o),
(283,1385,o),
(283,1329,cs),
(283,694,ls),
(283,638,o),
(235,590,o),
(179,590,cs)
);
}
);
width = 341;
}
);
unicode = 80;
},
{
glyphname = Thorn;
lastChange = "2024-04-18 09:29:42 +0000";
layers = (
{
hints = (
{
name = _corner.serif;
options = 1;
origin = (0,16);
scale = (-1,1);
type = Corner;
},
{
name = _corner.serif;
options = 2;
origin = (0,17);
type = Corner;
}
);
layerId = m01;
shapes = (
{
closed = 1;
nodes = (
(72,0,l),
(72,613,l),
(98,582,o),
(134,562,o),
(179,562,cs),
(252,562,o),
(311,621,o),
(311,694,cs),
(311,1329,ls),
(311,1402,o),
(252,1461,o),
(179,1461,cs),
(134,1461,o),
(98,1442,o),
(72,1411,c),
(72,1461,l),
(44,1461,l),
(44,0,l)
);
},
{
closed = 1;
nodes = (
(120,590,o),
(72,638,o),
(72,694,cs),
(72,1329,ls),
(72,1385,o),
(120,1433,o),
(179,1433,cs),
(235,1433,o),
(283,1385,o),
(283,1329,cs),
(283,694,ls),
(283,638,o),
(235,590,o),
(179,590,cs)
);
}
);
width = 341;
}
);
unicode = 222;
},
{
glyphname = Q;
kernLeft = "20";
kernRight = "20";
lastChange = "2024-04-18 09:29:42 +0000";
layers = (
{
layerId = m01;
shapes = (
{
closed = 1;
nodes = (
(58,1329,l),
(58,1385,o),
(106,1433,o),
(165,1433,cs),
(221,1433,o),
(269,1385,o),
(269,1329,c),
(297,1329,l),
(297,1402,o),
(238,1461,o),
(165,1461,cs),
(89,1461,o),
(30,1402,o),
(30,1329,c)
);
},
{
closed = 1;
nodes = (
(238,0,o),
(297,59,o),
(297,132,c),
(269,132,l),
(269,76,o),
(221,28,o),
(165,28,cs),
(106,28,o),
(58,76,o),
(58,132,c),
(30,132,l),
(30,59,o),
(89,0,o),
(165,0,cs)
);
},
{
closed = 1;
nodes = (
(297,-76,l),
(238,-76,o),
(190,-28,o),
(190,28,c),
(162,28,l),
(162,-45,o),
(221,-104,o),
(297,-104,c)
);
},
{
closed = 1;
nodes = (
(58,132,l),
(58,1329,l),
(30,1329,l),
(30,132,l)
);
},
{
closed = 1;
nodes = (
(297,132,l),
(297,1329,l),
(269,1329,l),
(269,132,l)
);
}
);
width = 327;
}
);
unicode = 81;
},
{
glyphname = R;
kernLeft = "20";
kernRight = "20";
lastChange = "2024-04-18 09:43:17 +0000";
layers = (
{
hints = (
{
name = _corner.serif;
origin = (0,32);
type = Corner;
},
{
name = _corner.serif;
options = 1;
origin = (0,17);
scale = (-1,1);
type = Corner;
}
);
layerId = m01;
shapes = (
{
closed = 1;
nodes = (
(72,0,l),
(72,1329,ls),
(72,1385,o),
(120,1433,o),
(179,1433,cs),
(235,1433,o),
(283,1385,o),
(283,1329,cs),
(283,694,ls),
(283,638,o),
(235,590,o),
(179,590,c),
(179,562,l),
(235,562,o),
(283,514,o),
(283,458,cs),
(283,0,l),
(311,0,l),
(311,458,ls),
(311,509,o),
(280,554,o),
(238,576,c),
(280,599,o),
(311,643,o),
(311,694,cs),
(311,1329,ls),
(311,1402,o),
(252,1461,o),
(179,1461,cs),
(103,1461,o),
(44,1402,o),
(44,1329,cs),
(44,0,l)
);
}
);
width = 355;
}
);
unicode = 82;
userData = {
KernOnName = R;
};
},
{
glyphname = S;
kernLeft = "20";
kernRight = "20";
lastChange = "2024-04-18 09:29:42 +0000";
layers = (
{
anchors = (
{
name = top;
pos = (162,1546);
}
);
hints = (
{
name = _corner.serif;
origin = (0,36);
type = Corner;
}
);
layerId = m01;
shapes = (
{
closed = 1;
nodes = (
(238,0,o),
(297,59,o),
(297,132,cs),
(297,1093,ls),
(297,1166,o),
(238,1225,o),
(165,1225,cs),
(106,1225,o),
(58,1273,o),
(58,1329,cs),
(58,1385,o),
(106,1433,o),
(165,1433,cs),
(221,1433,o),
(269,1385,o),
(269,1329,c),
(297,1329,l),
(297,1402,o),
(238,1461,o),
(165,1461,cs),
(89,1461,o),
(30,1402,o),
(30,1329,cs),
(30,1256,o),
(89,1197,o),
(165,1197,cs),
(221,1197,o),
(269,1149,o),
(269,1093,cs),
(269,132,ls),
(269,76,o),
(221,28,o),
(165,28,cs),
(106,28,o),
(58,76,o),
(58,132,cs),
(58,1093,l),
(30,1093,l),
(30,132,ls),
(30,59,o),
(89,0,o),
(165,0,cs)
);
}
);
width = 327;
}
);
unicode = 83;
},
{
glyphname = Germandbls;
lastChange = "2024-04-18 09:29:42 +0000";
layers = (
{
hints = (
{
name = _corner.serif;
options = 1;
origin = (0,2);
scale = (-1,1);
type = Corner;
},
{
name = _corner.serif;
origin = (0,3);
type = Corner;
}
);
layerId = m01;
shapes = (
{
closed = 1;
nodes = (
(72,0,l),
(72,1461,l),
(44,1461,l),
(44,0,l)
);
},
{
closed = 1;
nodes = (
(252,0,o),
(311,59,o),
(311,132,c),
(283,132,l),
(283,76,o),
(235,28,o),
(179,28,c),
(179,0,l)
);
},
{
closed = 1;
nodes = (
(311,132,l),
(311,1093,l),
(283,1093,l),
(283,132,l)
);
},
{
closed = 1;
nodes = (
(311,1093,l),
(311,1166,o),
(252,1225,o),
(179,1225,c),
(179,1197,l),
(235,1197,o),
(283,1149,o),
(283,1093,c)
);
},
{
closed = 1;
nodes = (
(252,1197,o),
(311,1256,o),
(311,1329,c),
(283,1329,l),
(283,1273,o),
(235,1225,o),
(179,1225,c),
(179,1197,l)
);
},
{
closed = 1;
nodes = (
(311,1433,l),
(311,1461,l),
(54,1461,l),
(54,1433,l)
);
},
{
closed = 1;
nodes = (
(311,1329,l),
(311,1461,l),
(283,1461,l),
(283,1329,l)
);
}
);
width = 341;
}
);
unicode = 7838;
},
{
glyphname = T;
kernLeft = "20";
kernRight = "20";
lastChange = "2024-04-18 09:29:42 +0000";
layers = (
{
hints = (
{
name = _corner.serif;
options = 1;
origin = (0,8);
scale = (-1,1);
type = Corner;
},
{
name = _corner.serif;
options = 1;
origin = (0,0);
scale = (-1,1);
type = Corner;
},
{
name = _corner.serif;
origin = (0,13);
type = Corner;
}
);
layerId = m01;
shapes = (
{
closed = 1;
nodes = (
(176,0,l),
(176,1329,ls),
(176,1385,o),
(224,1433,o),
(283,1433,cs),
(297,1433,l),
(297,1461,l),
(30,1461,l),
(30,1433,l),
(199,1433,l),
(168,1409,o),
(148,1371,o),
(148,1329,cs),
(148,0,l)
);
}
);
width = 327;
}
);
unicode = 84;
},
{
glyphname = U;
kernLeft = "20";
kernRight = "20";
lastChange = "2024-04-18 09:29:42 +0000";
layers = (
{
anchors = (
{
name = top;
pos = (176,1546);
}
);
hints = (
{
name = _corner.serif;
options = 1;
origin = (2,2);
scale = (-1,1);
type = Corner;
},
{
name = _corner.serif;
origin = (0,1);
type = Corner;
}
);
layerId = m01;
shapes = (
{
closed = 1;
nodes = (
(311,132,l),
(311,1461,l),
(283,1461,l),
(283,132,l)
);
},
{
closed = 1;
nodes = (
(252,0,o),
(311,59,o),
(311,132,c),
(283,132,l),
(283,76,o),
(235,28,o),
(179,28,cs),
(120,28,o),
(72,76,o),
(72,132,c),
(44,132,l),
(44,59,o),
(103,0,o),
(179,0,cs)
);
},
{
closed = 1;
nodes = (
(72,132,l),
(72,1461,l),
(44,1461,l),
(44,132,l)
);
}
);
width = 355;
}
);
unicode = 85;
},
{
glyphname = V;
kernLeft = "20";
kernRight = "20";
lastChange = "2024-04-18 09:29:42 +0000";
layers = (
{
hints = (
{
name = _corner.serif;
options = 1;
origin = (0,10);
scale = (-1,1);
type = Corner;
},
{
name = _corner.serif;
origin = (0,3);
type = Corner;
}
);
layerId = m01;
shapes = (
{
closed = 1;
nodes = (
(116,-25,o),
(240,-25,o),
(246,79,cs),
(310,1461,l),
(282,1461,l),
(217,84,ls),
(215,8,o),
(142,8,o),
(139,84,cs),
(71,1461,l),
(43,1461,l),
(111,79,ls)
);
}
);
width = 353;
}
);
unicode = 86;
},
{
glyphname = W;
kernLeft = "20";
kernRight = "20";
lastChange = "2024-04-18 09:29:42 +0000";
layers = (
{
anchors = (
{
name = top;
pos = (297,1546);
}
);
hints = (
{
name = _corner.serif;
options = 1;
origin = (0,28);
scale = (-1,1);
type = Corner;
},
{
name = _corner.serif;
origin = (0,9);
type = Corner;
}
);
layerId = m01;
shapes = (
{
closed = 1;
nodes = (
(230,0,o),
(275,31,o),
(297,73,c),
(320,31,o),
(365,0,o),
(418,0,cs),
(491,0,o),
(550,59,o),
(550,132,cs),
(550,1461,l),
(522,1461,l),
(522,132,ls),
(522,76,o),
(474,28,o),
(418,28,cs),
(359,28,o),
(311,76,o),
(311,132,cs),
(311,1461,l),
(283,1461,l),
(283,132,ls),
(283,76,o),
(235,28,o),
(179,28,cs),
(120,28,o),
(72,76,o),
(72,132,cs),
(72,1461,l),
(44,1461,l),
(44,132,ls),
(44,59,o),
(103,0,o),
(179,0,cs)
);
}
);
width = 594;
}
);
unicode = 87;
},
{
glyphname = X;
kernLeft = "20";
kernRight = "20";
lastChange = "2024-04-18 09:29:42 +0000";
layers = (
{
hints = (
{
name = _corner.serif;
options = 1;
origin = (5,1);
scale = (-1,1);
type = Corner;
},
{
name = _corner.serif;
origin = (4,0);
type = Corner;
}
);
layerId = m01;
shapes = (
{
closed = 1;
nodes = (
(103,899,o),
(44,840,o),
(44,767,c),
(72,767,l),
(72,823,o),
(120,871,o),
(179,871,cs),
(235,871,o),
(283,823,o),
(283,767,c),
(311,767,l),
(311,840,o),
(252,899,o),
(179,899,cs)
);
},
{
closed = 1;
nodes = (
(44,1003,l),
(72,1003,l),
(72,1461,l),
(44,1461,l)
);
},
{
closed = 1;
nodes = (
(283,1003,l),
(311,1003,l),
(311,1461,l),
(283,1461,l)
);
},
{
closed = 1;
nodes = (
(44,930,o),
(103,871,o),
(179,871,cs),
(252,871,o),
(311,930,o),
(311,1003,c),
(283,1003,l),
(283,947,o),
(235,899,o),
(179,899,cs),
(120,899,o),
(72,947,o),
(72,1003,c),
(44,1003,l)
);
},
{
closed = 1;
nodes = (
(44,0,l),
(72,0,l),
(72,767,l),
(44,767,l)
);
},
{
closed = 1;
nodes = (
(283,0,l),
(311,0,l),
(311,767,l),
(283,767,l)
);
}
);
width = 355;
}
);
unicode = 88;
},
{
glyphname = Y;
kernLeft = "20";
kernRight = "20";
lastChange = "2024-04-18 09:29:42 +0000";
layers = (
{
anchors = (
{
name = top;
pos = (176,1546);
}
);
hints = (
{
name = _corner.serif;
options = 1;
origin = (2,2);
scale = (-1,1);
type = Corner;
},
{
name = _corner.serif;
origin = (3,1);
type = Corner;
},
{
name = _corner.serif;
options = 1;
origin = (1,0);
scale = (-1,1);
type = Corner;
},
{
name = _corner.serif;
origin = (1,3);
type = Corner;
}
);
layerId = m01;
shapes = (
{
closed = 1;
nodes = (
(252,562,o),
(311,621,o),
(311,694,c),
(283,694,l),
(283,638,o),
(235,590,o),
(179,590,cs),
(120,590,o),
(72,638,o),
(72,694,c),
(44,694,l),
(44,621,o),
(103,562,o),
(179,562,cs)
);
},
{
closed = 1;
nodes = (
(190,0,l),
(190,576,l),
(162,576,l),
(162,0,l)
);
},
{
closed = 1;
nodes = (
(72,694,l),
(72,1461,l),
(44,1461,l),
(44,694,l)
);
},
{
closed = 1;
nodes = (
(311,694,l),
(311,1461,l),
(283,1461,l),
(283,694,l)
);
}
);
width = 355;
}
);
unicode = 89;
},
{
glyphname = Z;
kernLeft = "20";
kernRight = "20";
lastChange = "2024-04-18 09:29:42 +0000";
layers = (
{
anchors = (
{
name = top;
pos = (162,1546);
}
);
hints = (
{
name = _corner.serif;
options = 1;
origin = (0,7);
scale = (-1,1);
type = Corner;
}
);
layerId = m01;
shapes = (
{
closed = 1;
nodes = (
(297,0,l),
(297,28,l),
(58,28,l),
(58,132,l),
(297,1329,l),
(297,1461,l),
(30,1461,l),
(30,1433,l),
(269,1433,l),
(269,1329,l),
(30,132,l),
(30,0,l)
);
}
);
width = 327;
}
);
unicode = 90;
},
{
glyphname = a;
kernLeft = "20";
kernRight = "20";
lastChange = "2024-04-18 09:29:42 +0000";
layers = (
{
anchors = (
{
name = top;
pos = (165,1068);
}
);
hints = (
{
name = _corner.serif;
options = 1;
origin = (3,0);
scale = (-1,1);
type = Corner;
}
);
layerId = m01;
shapes = (
{
closed = 1;
nodes = (
(58,851,l),
(58,908,o),
(106,955,o),
(165,955,cs),
(221,955,o),
(269,908,o),
(269,851,c),
(297,851,l),
(297,924,o),
(238,984,o),
(165,984,cs),
(89,984,o),
(30,924,o),
(30,851,c)
);
},
{
closed = 1;
nodes = (
(165,28,l),
(106,28,o),
(58,76,o),
(58,132,c),
(30,132,l),
(30,59,o),
(89,0,o),
(165,0,c)
);
},
{
closed = 1;
nodes = (
(58,132,l),
(58,851,l),
(30,851,l),
(30,132,l)
);
},
{
closed = 1;
nodes = (
(297,0,l),
(297,851,l),
(269,851,l),
(269,0,l)
);
}
);
width = 341;
}
);
unicode = 97;
},
{
glyphname = ae;
kernLeft = "20";
kernRight = "20";
lastChange = "2024-04-18 09:29:42 +0000";
layers = (
{
layerId = m01;
shapes = (
{
closed = 1;
nodes = (
(165,28,l),
(106,28,o),
(58,76,o),
(58,132,cs),
(58,851,ls),
(58,908,o),
(106,955,o),
(165,955,cs),
(221,955,o),
(269,908,o),
(269,851,cs),
(269,0,l),
(297,0,l),
(297,51,l),
(322,20,o),
(359,0,o),
(404,0,c),
(404,28,l),
(345,28,o),
(297,76,o),
(297,132,cs),
(297,851,ls),
(297,908,o),
(345,955,o),
(404,955,cs),
(460,955,o),
(508,908,o),
(508,851,c),
(404,851,l),
(404,823,l),
(536,823,l),
(536,851,ls),
(536,924,o),
(477,984,o),
(404,984,cs),
(351,984,o),
(306,953,o),
(283,910,c),
(261,953,o),
(216,984,o),
(165,984,cs),
(89,984,o),
(30,924,o),
(30,851,cs),
(30,132,ls),
(30,59,o),
(89,0,o),
(165,0,c)
);
}
);
width = 566;
}
);
unicode = 230;
},
{
glyphname = b;
kernLeft = "20";
kernRight = "20";
lastChange = "2024-04-18 09:43:17 +0000";
layers = (
{
hints = (
{
name = _corner.serif;
options = 1;
origin = (0,2);
scale = (-1,1);
type = Corner;
}
);
layerId = m01;
shapes = (
{
closed = 1;
nodes = (
(72,132,l),
(72,1461,l),
(44,1461,l),
(44,132,l)
);
},
{
closed = 1;
nodes = (
(252,0,o),
(311,59,o),
(311,132,c),
(283,132,l),
(283,76,o),
(235,28,o),
(176,28,cs),
(120,28,o),
(72,76,o),
(72,132,c),
(44,132,l),
(44,59,o),
(103,0,o),
(176,0,cs)
);
},
{
closed = 1;
nodes = (
(311,132,l),
(311,851,l),
(283,851,l),
(283,132,l)
);
},
{
closed = 1;
nodes = (
(311,851,l),
(311,924,o),
(252,984,o),
(176,984,c),
(176,955,l),
(235,955,o),
(283,908,o),
(283,851,c)
);
}
);
width = 341;
}
);
unicode = 98;
userData = {
KernOnName = b;
};
},
{
glyphname = c;
kernLeft = "20";
kernRight = "20";
lastChange = "2024-04-18 09:29:42 +0000";
layers = (
{
anchors = (
{
name = bottom;
pos = (238,14);
}
);
layerId = m01;
shapes = (
{
closed = 1;
nodes = (
(58,851,l),
(58,908,o),
(106,955,o),
(165,955,cs),
(221,955,o),
(269,908,o),
(269,851,c),
(297,851,l),
(297,924,o),
(238,984,o),
(165,984,cs),
(89,984,o),
(30,924,o),
(30,851,c)
);
},
{
closed = 1;
nodes = (
(238,0,o),
(297,59,o),
(297,132,c),
(269,132,l),
(269,76,o),
(221,28,o),
(165,28,cs),
(106,28,o),
(58,76,o),
(58,132,c),
(30,132,l),
(30,59,o),
(89,0,o),
(165,0,cs)
);
},
{
closed = 1;
nodes = (
(58,132,l),
(58,851,l),
(30,851,l),
(30,132,l)
);
}
);
width = 327;
}
);
unicode = 99;
},
{
glyphname = d;
kernLeft = "20";
kernRight = "20";
lastChange = "2024-04-18 09:29:42 +0000";
layers = (
{
hints = (
{
name = _corner.serif;
origin = (0,1);
type = Corner;
}
);
layerId = m01;
shapes = (
{
closed = 1;
nodes = (
(297,132,l),
(297,1461,l),
(269,1461,l),
(269,132,l)
);
},
{
closed = 1;
nodes = (
(238,0,o),
(297,59,o),
(297,132,c),
(269,132,l),
(269,76,o),
(221,28,o),
(165,28,cs),
(106,28,o),
(58,76,o),
(58,132,c),
(30,132,l),
(30,59,o),
(89,0,o),
(165,0,cs)
);
},
{
closed = 1;
nodes = (
(58,132,l),
(58,851,l),
(30,851,l),
(30,132,l)
);
},
{
closed = 1;
nodes = (
(58,851,l),
(58,908,o),
(106,955,o),
(165,955,c),
(165,984,l),
(89,984,o),
(30,924,o),
(30,851,c)
);
}
);
width = 341;
}
);
unicode = 100;
},
{
glyphname = eth;
lastChange = "2024-04-18 09:29:42 +0000";
layers = (
{
layerId = m01;
shapes = (
{
closed = 1;
nodes = (
(297,132,l),
(297,1461,l),
(269,1461,l),
(269,132,l)
);
},
{
closed = 1;
nodes = (
(238,0,o),
(297,59,o),
(297,132,c),
(269,132,l),
(269,76,o),
(221,28,o),
(165,28,cs),
(106,28,o),
(58,76,o),
(58,132,c),
(30,132,l),
(30,59,o),
(89,0,o),
(165,0,cs)
);
},
{
closed = 1;
nodes = (
(58,132,l),
(58,851,l),
(30,851,l),
(30,132,l)
);
},
{
closed = 1;
nodes = (
(58,851,l),
(58,908,o),
(106,955,o),
(165,955,c),
(165,984,l),
(89,984,o),
(30,924,o),
(30,851,c)
);
},
{
closed = 1;
nodes = (
(412,1102,l),
(412,1130,l),
(272,1130,l),
(272,1102,l)
);
}
);
width = 442;
}
);
unicode = 240;
},
{
glyphname = e;
kernLeft = "20";
kernRight = "20";
lastChange = "2024-04-18 09:43:17 +0000";
layers = (
{
anchors = (
{
name = top;
pos = (165,1068);
}
);
layerId = m01;
shapes = (
{
closed = 1;
nodes = (
(58,851,l),
(58,908,o),
(106,955,o),
(165,955,cs),
(221,955,o),
(269,908,o),
(269,851,c),
(297,851,l),
(297,924,o),
(238,984,o),
(165,984,cs),
(89,984,o),
(30,924,o),
(30,851,c)
);
},
{
closed = 1;
nodes = (
(165,28,l),
(106,28,o),
(58,76,o),
(58,132,c),
(30,132,l),
(30,59,o),
(89,0,o),
(165,0,c)
);
},
{
closed = 1;
nodes = (
(58,132,l),
(58,851,l),
(30,851,l),
(30,132,l)
);
},
{
closed = 1;
nodes = (
(297,823,l),
(297,851,l),
(165,851,l),
(165,823,l)
);
}
);
width = 327;
}
);
unicode = 101;
userData = {
KernOnName = e;
};
},
{
glyphname = f;
kernLeft = "20";
kernRight = "20";
lastChange = "2024-04-18 09:29:42 +0000";
layers = (
{
hints = (
{
name = _corner.serif;
origin = (0,3);
type = Corner;
}
);
layerId = m01;
shapes = (
{
closed = 1;
nodes = (
(72,0,l),
(72,1329,l),
(44,1329,l),
(44,0,l)
);
},
{
closed = 1;
nodes = (
(179,478,l),
(179,506,l),
(64,506,l),
(64,478,l)
);
},
{
closed = 1;
nodes = (
(72,1329,l),
(72,1385,o),
(120,1433,o),
(179,1433,c),
(179,1461,l),
(103,1461,o),
(44,1402,o),
(44,1329,c)
);
}
);
width = 209;
}
);
unicode = 102;
},
{
glyphname = g;
kernLeft = "0";
kernRight = "0";
lastChange = "2024-04-18 09:29:42 +0000";
layers = (
{
layerId = m01;
shapes = (
{
closed = 1;
nodes = (
(238,-483,o),
(297,-424,o),
(297,-351,cs),
(297,132,l),
(269,132,l),
(269,76,o),
(221,28,o),
(165,28,cs),
(106,28,o),
(58,76,o),
(58,132,cs),
(58,851,ls),
(58,908,o),
(106,955,o),
(165,955,c),
(165,984,l),
(89,984,o),
(30,924,o),
(30,851,cs),
(30,132,ls),
(30,59,o),
(89,0,o),
(165,0,cs),
(207,0,o),
(244,20,o),
(269,51,c),
(269,-351,ls),
(269,-407,o),
(221,-455,o),
(162,-455,c),
(162,-483,l)
);
}
);
width = 327;
}
);
unicode = 103;
},
{
glyphname = h;
kernLeft = "20";
kernRight = "20";
lastChange = "2024-04-18 09:29:42 +0000";
layers = (
{
hints = (
{
name = _corner.serif;
origin = (0,19);
type = Corner;
},
{
name = _corner.serif;
options = 1;
origin = (0,9);
scale = (-1,1);
type = Corner;
},
{
name = _corner.serif;
options = 1;
origin = (0,18);
scale = (-1,1);
type = Corner;
}
);
layerId = m01;
shapes = (
{
closed = 1;
nodes = (
(72,0,l),
(72,851,ls),
(72,908,o),
(120,955,o),
(179,955,cs),
(235,955,o),
(283,908,o),
(283,851,cs),
(283,0,l),
(311,0,l),
(311,851,ls),
(311,924,o),
(252,984,o),
(179,984,cs),
(134,984,o),
(98,964,o),
(72,933,c),
(72,1461,l),
(44,1461,l),
(44,0,l)
);
}
);
width = 355;
}
);
unicode = 104;
},
{
glyphname = i;
kernLeft = "20";
kernRight = "20";
lastChange = "2024-04-18 09:43:17 +0000";
layers = (
{
hints = (
{
name = _corner.serif;
options = 1;
origin = (0,2);
scale = (-1,1);
type = Corner;
},
{
name = _corner.serif;
options = 2;
origin = (0,3);
type = Corner;
}
);
layerId = m01;
shapes = (
{
closed = 1;
nodes = (
(72,0,l),
(72,984,l),
(44,984,l),
(44,0,l)
);
},
{
closed = 1;
nodes = (
(67,1312,o),
(72,1318,o),
(72,1326,cs),
(72,1335,o),
(67,1340,o),
(58,1340,cs),
(50,1340,o),
(44,1335,o),
(44,1326,cs),
(44,1318,o),
(50,1312,o),
(58,1312,c)
);
}
);
width = 102;
}
);
unicode = 105;
userData = {
KernOnName = i;
};
},
{
glyphname = idotless;
kernLeft = "20";
kernRight = "20";
lastChange = "2024-04-18 09:29:42 +0000";
layers = (
{
anchors = (
{
name = top;
pos = (58,1068);
}
);
hints = (
{
name = _corner.serif;
options = 1;
origin = (0,2);
scale = (-1,1);
type = Corner;
},
{
name = _corner.serif;
options = 2;
origin = (0,3);
type = Corner;
}
);
layerId = m01;
shapes = (
{
closed = 1;
nodes = (
(72,0,l),
(72,984,l),
(44,984,l),
(44,0,l)
);
}
);
width = 102;
}
);
unicode = 305;
},
{
glyphname = ij;
lastChange = "2024-04-18 09:29:42 +0000";
layers = (
{
hints = (
{
name = _corner.serif;
options = 1;
origin = (2,2);
scale = (-1,1);
type = Corner;
},
{
name = _corner.serif;
options = 2;
origin = (2,3);
type = Corner;
},
{
name = _corner.serif;
origin = (0,1);
type = Corner;
}
);
layerId = m01;
shapes = (
{
closed = 1;
nodes = (
(207,-351,l),
(207,984,l),
(179,984,l),
(179,-351,l)
);
},
{
closed = 1;
nodes = (
(148,-483,o),
(207,-424,o),
(207,-351,c),
(179,-351,l),
(179,-407,o),
(131,-455,o),
(72,-455,c),
(72,-483,l)
);
},
{
closed = 1;
nodes = (
(72,0,l),
(72,984,l),
(44,984,l),
(44,0,l)
);
},
{
closed = 1;
nodes = (
(67,1312,o),
(72,1318,o),
(72,1326,cs),
(72,1335,o),
(67,1340,o),
(58,1340,cs),
(50,1340,o),
(44,1335,o),
(44,1326,cs),
(44,1318,o),
(50,1312,o),
(58,1312,c)
);
},
{
closed = 1;
nodes = (
(202,1315,o),
(207,1321,o),
(207,1329,cs),
(207,1338,o),
(202,1343,o),
(193,1343,cs),
(185,1343,o),
(179,1338,o),
(179,1329,cs),
(179,1321,o),
(185,1315,o),
(193,1315,c)
);
}
);
width = 251;
}
);
unicode = 307;
},
{
glyphname = j;
kernRight = "20";
lastChange = "2024-04-18 09:43:17 +0000";
layers = (
{
anchors = (
{
name = top;
pos = (151,1576);
}
);
hints = (
{
name = _corner.serif;
origin = (0,1);
type = Corner;
}
);
layerId = m01;
shapes = (
{
closed = 1;
nodes = (
(165,-351,l),
(165,984,l),
(137,984,l),
(137,-351,l)
);
},
{
closed = 1;
nodes = (
(106,-483,o),
(165,-424,o),
(165,-351,c),
(137,-351,l),
(137,-407,o),
(89,-455,o),
(30,-455,c),
(30,-483,l)
);
},
{
closed = 1;
nodes = (
(160,1315,o),
(165,1321,o),
(165,1329,cs),
(165,1338,o),
(160,1343,o),
(151,1343,cs),
(143,1343,o),
(137,1338,o),
(137,1329,cs),
(137,1321,o),
(143,1315,o),
(151,1315,c)
);
}
);
width = 209;
}
);
unicode = 106;
userData = {
KernOnName = j;
};
},
{
glyphname = jdotless;
lastChange = "2024-04-18 09:29:42 +0000";
layers = (
{
hints = (
{
name = _corner.serif;
origin = (0,1);
type = Corner;
}
);
layerId = m01;
shapes = (
{
closed = 1;
nodes = (
(165,-351,l),
(165,984,l),
(137,984,l),
(137,-351,l)
);
},
{
closed = 1;
nodes = (
(106,-483,o),
(165,-424,o),
(165,-351,c),
(137,-351,l),
(137,-407,o),
(89,-455,o),
(30,-455,c),
(30,-483,l)
);
}
);
width = 209;
}
);
unicode = 567;
},
{
glyphname = k;
kernLeft = "20";
kernRight = "20";
lastChange = "2024-04-18 09:43:17 +0000";
layers = (
{
hints = (
{
name = _corner.serif;
options = 1;
origin = (0,25);
scale = (-1,1);
type = Corner;
},
{
name = _corner.serif;
options = 2;
origin = (0,26);
type = Corner;
}
);
layerId = m01;
shapes = (
{
closed = 1;
nodes = (
(72,0,l),
(72,157,l),
(98,126,o),
(134,107,o),
(179,107,cs),
(235,107,o),
(283,59,o),
(283,0,c),
(311,0,l),
(311,53,o),
(280,98,o),
(238,121,c),
(280,143,o),
(311,188,o),
(311,239,cs),
(311,984,l),
(283,984,l),
(283,239,ls),
(283,183,o),
(235,135,o),
(179,135,cs),
(120,135,o),
(72,183,o),
(72,239,cs),
(72,1461,l),
(44,1461,l),
(44,0,l)
);
}
);
width = 341;
}
);
unicode = 107;
userData = {
KernOnName = k;
};
},
{
glyphname = l;
kernLeft = "20";
kernRight = "20";
lastChange = "2024-04-18 09:43:17 +0000";
layers = (
{
hints = (
{
name = _corner.serif;
options = 1;
origin = (0,2);
scale = (-1,1);
type = Corner;
},
{
name = _corner.serif;
options = 2;
origin = (0,3);
type = Corner;
}
);
layerId = m01;
shapes = (
{
closed = 1;
nodes = (
(72,0,l),
(72,1461,l),
(44,1461,l),
(44,0,l)
);
}
);
width = 102;
}
);
unicode = 108;
userData = {
KernOnName = l;
};
},
{
glyphname = m;
kernLeft = "20";
kernRight = "20";
lastChange = "2024-04-18 09:29:42 +0000";
layers = (
{
hints = (
{
name = _corner.serif;
origin = (0,32);
type = Corner;
},
{
name = _corner.serif;
options = 1;
origin = (0,18);
scale = (-1,1);
type = Corner;
}
);
layerId = m01;
shapes = (
{
closed = 1;
nodes = (
(72,0,l),
(72,851,ls),
(72,908,o),
(120,955,o),
(179,955,cs),
(235,955,o),
(283,908,o),
(283,851,cs),
(283,0,l),
(311,0,l),
(311,851,ls),
(311,908,o),
(359,955,o),
(418,955,cs),
(474,955,o),
(522,908,o),
(522,851,cs),
(522,0,l),
(550,0,l),
(550,851,ls),
(550,924,o),
(491,984,o),
(418,984,cs),
(365,984,o),
(320,953,o),
(297,910,c),
(275,953,o),
(230,984,o),
(179,984,cs),
(103,984,o),
(44,924,o),
(44,851,cs),
(44,0,l)
);
}
);
width = 594;
}
);
unicode = 109;
},
{
glyphname = n;
kernLeft = "20";
kernRight = "20";
lastChange = "2024-04-18 10:01:09 +0000";
layers = (
{
anchors = (
{
name = top;
pos = (179,1068);
}
);
hints = (
{
name = _corner.serif;
origin = (1,3);
type = Corner;
},
{
name = _corner.serif;
options = 1;
origin = (2,0);
scale = (-1,1);
type = Corner;
}
);
layerId = m01;
shapes = (
{
closed = 1;
nodes = (
(72,851,l),
(72,908,o),
(120,955,o),
(179,955,cs),
(235,955,o),
(283,908,o),
(283,851,c),
(311,851,l),
(311,924,o),
(252,984,o),
(179,984,cs),
(103,984,o),
(44,924,o),
(44,851,c)
);
},
{
closed = 1;
nodes = (
(72,0,l),
(72,851,l),
(44,851,l),
(44,0,l)
);
},
{
closed = 1;
nodes = (
(311,0,l),
(311,851,l),
(283,851,l),
(283,0,l)
);
}
);
width = 355;
}
);
unicode = 110;
userData = {
KernOnName = n;
};
},
{
glyphname = o;
kernLeft = "20";
kernRight = "20";
lastChange = "2024-04-18 09:43:17 +0000";
layers = (
{
anchors = (
{
name = top;
pos = (165,1068);
}
);
layerId = m01;
shapes = (
{
closed = 1;
nodes = (
(58,851,l),
(58,908,o),
(106,955,o),
(165,955,cs),
(221,955,o),
(269,908,o),
(269,851,c),
(297,851,l),
(297,924,o),
(238,984,o),
(165,984,cs),
(89,984,o),
(30,924,o),
(30,851,c)
);
},
{
closed = 1;
nodes = (
(238,0,o),
(297,59,o),
(297,132,c),
(269,132,l),
(269,76,o),
(221,28,o),
(165,28,cs),
(106,28,o),
(58,76,o),
(58,132,c),
(30,132,l),
(30,59,o),
(89,0,o),
(165,0,cs)
);
},
{
closed = 1;
nodes = (
(58,132,l),
(58,851,l),
(30,851,l),
(30,132,l)
);
},
{
closed = 1;
nodes = (
(297,132,l),
(297,851,l),
(269,851,l),
(269,132,l)
);
}
);
width = 327;
}
);
unicode = 111;
userData = {
KernOnName = o;
};
},
{
glyphname = oslash;
kernLeft = "20";
kernRight = "20";
lastChange = "2024-04-18 09:29:42 +0000";
layers = (
{
anchors = (
{
name = top;
pos = (435,565);
}
);
layerId = m01;
shapes = (
{
closed = 1;
nodes = (
(58,851,l),
(58,908,o),
(106,955,o),
(165,955,cs),
(221,955,o),
(269,908,o),
(269,851,c),
(297,851,l),
(297,924,o),
(238,984,o),
(165,984,cs),
(89,984,o),
(30,924,o),
(30,851,c)
);
},
{
closed = 1;
nodes = (
(64,0,l),
(95,45,l),
(70,59,l),
(30,0,l)
);
},
{
closed = 1;
nodes = (
(238,0,o),
(297,59,o),
(297,132,c),
(269,132,l),
(269,76,o),
(221,28,o),
(165,28,cs),
(106,28,o),
(58,76,o),
(58,132,c),
(30,132,l),
(30,59,o),
(89,0,o),
(165,0,cs)
);
},
{
closed = 1;
nodes = (
(58,132,l),
(58,851,l),
(30,851,l),
(30,132,l)
);
},
{
closed = 1;
nodes = (
(297,132,l),
(297,851,l),
(269,851,l),
(269,132,l)
);
},
{
closed = 1;
nodes = (
(297,984,l),
(263,984,l),
(233,939,l),
(258,924,l)
);
}
);
width = 327;
}
);
unicode = 248;
},
{
glyphname = oe;
kernLeft = "20";
kernRight = "20";
lastChange = "2024-04-18 09:29:42 +0000";
layers = (
{
layerId = m01;
shapes = (
{
closed = 1;
nodes = (
(216,0,o),
(261,31,o),
(283,73,c),
(306,31,o),
(351,0,o),
(404,0,c),
(404,28,l),
(345,28,o),
(297,76,o),
(297,132,cs),
(297,851,ls),
(297,908,o),
(345,955,o),
(404,955,cs),
(460,955,o),
(508,908,o),
(508,851,c),
(404,851,l),
(404,823,l),
(536,823,l),
(536,851,ls),
(536,924,o),
(477,984,o),
(404,984,cs),
(351,984,o),
(306,953,o),
(283,910,c),
(261,953,o),
(216,984,o),
(165,984,cs),
(89,984,o),
(30,924,o),
(30,851,cs),
(30,132,ls),
(30,59,o),
(89,0,o),
(165,0,cs)
);
},
{
closed = 1;
nodes = (
(106,28,o),
(58,76,o),
(58,132,cs),
(58,851,ls),
(58,908,o),
(106,955,o),
(165,955,cs),
(221,955,o),
(269,908,o),
(269,851,cs),
(269,132,ls),
(269,76,o),
(221,28,o),
(165,28,cs)
);
}
);
width = 566;
}
);
unicode = 339;
},
{
glyphname = p;
kernLeft = "20";
kernRight = "20";
lastChange = "2024-04-18 09:43:17 +0000";
layers = (
{
hints = (
{
name = _corner.serif;
origin = (0,3);
type = Corner;
}
);
layerId = m01;
shapes = (
{
closed = 1;
nodes = (
(72,-478,l),
(72,851,l),
(44,851,l),
(44,-478,l)
);
},
{
closed = 1;
nodes = (
(252,0,o),
(311,59,o),
(311,132,c),
(283,132,l),
(283,76,o),
(235,28,o),
(176,28,c),
(176,0,l)
);
},
{
closed = 1;
nodes = (
(311,132,l),
(311,851,l),
(283,851,l),
(283,132,l)
);
},
{
closed = 1;
nodes = (
(72,851,l),
(72,908,o),
(120,955,o),
(176,955,cs),
(235,955,o),
(283,908,o),
(283,851,c),
(311,851,l),
(311,924,o),
(252,984,o),
(176,984,cs),
(103,984,o),
(44,924,o),
(44,851,c)
);
}
);
width = 341;
}
);
unicode = 112;
userData = {
KernOnName = p;
};
},
{
glyphname = thorn;
lastChange = "2024-04-18 09:29:42 +0000";
layers = (
{
layerId = m01;
shapes = (
{
closed = 1;
nodes = (
(58,-478,l),
(58,1461,l),
(30,1461,l),
(30,-478,l)
);
},
{
closed = 1;
nodes = (
(238,0,o),
(297,59,o),
(297,132,c),
(269,132,l),
(269,76,o),
(221,28,o),
(162,28,c),
(162,0,l)
);
},
{
closed = 1;
nodes = (
(297,132,l),
(297,851,l),
(269,851,l),
(269,132,l)
);
},
{
closed = 1;
nodes = (
(58,851,l),
(58,908,o),
(106,955,o),
(162,955,cs),
(221,955,o),
(269,908,o),
(269,851,c),
(297,851,l),
(297,924,o),
(238,984,o),
(162,984,cs),
(89,984,o),
(30,924,o),
(30,851,c)
);
}
);
width = 327;
}
);
unicode = 254;
},
{
glyphname = q;
kernLeft = "20";
kernRight = "20";
lastChange = "2024-04-18 09:29:42 +0000";
layers = (
{
layerId = m01;
shapes = (
{
closed = 1;
nodes = (
(297,-104,l),
(297,-53,o),
(266,-8,o),
(224,14,c),
(266,37,o),
(297,81,o),
(297,132,cs),
(297,851,ls),
(297,924,o),
(238,984,o),
(165,984,cs),
(89,984,o),
(30,924,o),
(30,851,cs),
(30,132,ls),
(30,59,o),
(89,0,o),
(165,0,cs),
(221,0,o),
(269,-48,o),
(269,-104,c)
);
},
{
closed = 1;
nodes = (
(106,28,o),
(58,76,o),
(58,132,cs),
(58,851,ls),
(58,908,o),
(106,955,o),
(165,955,cs),
(221,955,o),
(269,908,o),
(269,851,cs),
(269,132,ls),
(269,76,o),
(221,28,o),
(165,28,cs)
);
}
);
width = 327;
}
);
unicode = 113;
},
{
glyphname = r;
kernLeft = "20";
kernRight = "20";
lastChange = "2024-04-18 10:03:21 +0000";
layers = (
{
hints = (
{
name = _corner.serif;
origin = (0,3);
type = Corner;
}
);
layerId = m01;
shapes = (
{
closed = 1;
nodes = (
(72,0,l),
(72,851,l),
(44,851,l),
(44,0,l)
);
},
{
closed = 1;
nodes = (
(72,851,l),
(72,908,o),
(120,955,o),
(179,955,c),
(179,984,l),
(103,984,o),
(44,924,o),
(44,851,c)
);
}
);
width = 209;
}
);
unicode = 114;
userData = {
KernOnName = r;
};
},
{
glyphname = s;
kernLeft = "20";
kernRight = "20";
lastChange = "2024-04-18 09:29:42 +0000";
layers = (
{
anchors = (
{
name = top;
pos = (165,1068);
}
);
layerId = m01;
shapes = (
{
closed = 1;
nodes = (
(238,0,o),
(297,59,o),
(297,132,cs),
(297,506,l),
(58,506,l),
(58,851,ls),
(58,908,o),
(106,955,o),
(165,955,cs),
(193,955,o),
(219,944,o),
(238,924,c),
(258,944,l),
(235,967,o),
(202,984,o),
(165,984,cs),
(89,984,o),
(30,924,o),
(30,851,cs),
(30,478,l),
(269,478,l),
(269,132,ls),
(269,76,o),
(221,28,o),
(162,28,cs),
(134,28,o),
(109,39,o),
(89,59,c),
(70,39,l),
(92,17,o),
(126,0,o),
(162,0,cs)
);
}
);
width = 327;
}
);
unicode = 115;
},
{
glyphname = germandbls;
kernLeft = "20";
kernRight = "20";
lastChange = "2024-04-18 09:29:42 +0000";
layers = (
{
layerId = m01;
shapes = (
{
closed = 1;
nodes = (
(58,0,l),
(58,1329,l),
(30,1329,l),
(30,0,l)
);
},
{
closed = 1;
nodes = (
(297,0,l),
(297,458,l),
(269,458,l),
(269,0,l)
);
},
{
closed = 1;
nodes = (
(297,458,l),
(297,531,o),
(238,590,o),
(165,590,c),
(165,562,l),
(221,562,o),
(269,514,o),
(269,458,c)
);
},
{
closed = 1;
nodes = (
(238,562,o),
(297,621,o),
(297,694,c),
(269,694,l),
(269,638,o),
(221,590,o),
(165,590,c),
(165,562,l)
);
},
{
closed = 1;
nodes = (
(297,694,l),
(297,1329,l),
(269,1329,l),
(269,694,l)
);
},
{
closed = 1;
nodes = (
(58,1329,l),
(58,1385,o),
(106,1433,o),
(165,1433,cs),
(221,1433,o),
(269,1385,o),
(269,1329,c),
(297,1329,l),
(297,1402,o),
(238,1461,o),
(165,1461,cs),
(89,1461,o),
(30,1402,o),
(30,1329,c)
);
}
);
width = 327;
}
);
unicode = 223;
},
{
glyphname = t;
kernLeft = "20";
kernRight = "20";
lastChange = "2024-04-18 09:29:42 +0000";
layers = (
{
hints = (
{
name = _corner.serif;
options = 1;
origin = (0,2);
scale = (-1,1);
type = Corner;
}
);
layerId = m01;
shapes = (
{
closed = 1;
nodes = (
(72,132,l),
(72,1461,l),
(44,1461,l),
(44,132,l)
);
},
{
closed = 1;
nodes = (
(179,28,l),
(120,28,o),
(72,76,o),
(72,132,c),
(44,132,l),
(44,59,o),
(103,0,o),
(179,0,c)
);
},
{
closed = 1;
nodes = (
(179,955,l),
(179,984,l),
(64,984,l),
(64,955,l)
);
}
);
width = 209;
}
);
unicode = 116;
},
{
glyphname = u;
kernLeft = "20";
kernRight = "20";
lastChange = "2024-04-18 09:37:13 +0000";
layers = (
{
anchors = (
{
name = top;
pos = (179,1068);
}
);
hints = (
{
name = _corner.serif;
options = 1;
origin = (1,2);
scale = (-1,1);
type = Corner;
},
{
name = _corner.serif;
origin = (2,1);
type = Corner;
}
);
layerId = m01;
shapes = (
{
closed = 1;
nodes = (
(252,0,o),
(311,59,o),
(311,132,c),
(283,132,l),
(283,76,o),
(235,28,o),
(179,28,cs),
(120,28,o),
(72,76,o),
(72,132,c),
(44,132,l),
(44,59,o),
(103,0,o),
(179,0,cs)
);
},
{
closed = 1;
nodes = (
(72,132,l),
(72,984,l),
(44,984,l),
(44,132,l)
);
},
{
closed = 1;
nodes = (
(311,132,l),
(311,984,l),
(283,984,l),
(283,132,l)
);
}
);
width = 355;
}
);
unicode = 117;
},
{
glyphname = v;
kernLeft = "20";
kernRight = "20";
lastChange = "2024-04-18 09:29:42 +0000";
layers = (
{
hints = (
{
name = _corner.serif;
options = 1;
origin = (0,1);
scale = (-1,1);
type = Corner;
},
{
name = _corner.serif;
origin = (0,6);
type = Corner;
}
);
layerId = m01;
shapes = (
{
closed = 1;
nodes = (
(70,984,l),
(42,984,l),
(96,84,ls),
(101,-28,o),
(253,-28,o),
(259,84,cs),
(309,984,l),
(281,984,l),
(231,81,ls),
(228,8,o),
(129,8,o),
(124,81,cs)
);
}
);
width = 351;
}
);
unicode = 118;
},
{
glyphname = w;
kernLeft = "20";
kernRight = "20";
lastChange = "2024-04-18 09:29:42 +0000";
layers = (
{
anchors = (
{
name = top;
pos = (297,1068);
}
);
hints = (
{
name = _corner.serif;
options = 1;
origin = (2,2);
scale = (-1,1);
type = Corner;
},
{
name = _corner.serif;
origin = (4,1);
type = Corner;
}
);
layerId = m01;
shapes = (
{
closed = 1;
nodes = (
(491,0,o),
(550,59,o),
(550,132,c),
(522,132,l),
(522,76,o),
(474,28,o),
(418,28,cs),
(359,28,o),
(311,76,o),
(311,132,c),
(283,132,l),
(283,59,o),
(342,0,o),
(418,0,cs)
);
},
{
closed = 1;
nodes = (
(252,0,o),
(311,59,o),
(311,132,c),
(283,132,l),
(283,76,o),
(235,28,o),
(179,28,cs),
(120,28,o),
(72,76,o),
(72,132,c),
(44,132,l),
(44,59,o),
(103,0,o),
(179,0,cs)
);
},
{
closed = 1;
nodes = (
(72,132,l),
(72,984,l),
(44,984,l),
(44,132,l)
);
},
{
closed = 1;
nodes = (
(311,132,l),
(311,984,l),
(283,984,l),
(283,132,l)
);
},
{
closed = 1;
nodes = (
(550,132,l),
(550,984,l),
(522,984,l),
(522,132,l)
);
}
);
width = 594;
}
);
unicode = 119;
},
{
glyphname = x;
kernLeft = "20";
kernRight = "20";
lastChange = "2024-04-18 09:29:42 +0000";
layers = (
{
hints = (
{
name = _corner.serif;
options = 1;
origin = (2,2);
scale = (-1,1);
type = Corner;
},
{
name = _corner.serif;
origin = (3,1);
type = Corner;
}
);
layerId = m01;
shapes = (
{
closed = 1;
nodes = (
(252,104,o),
(311,163,o),
(311,236,c),
(283,236,l),
(283,180,o),
(235,132,o),
(179,132,cs),
(120,132,o),
(72,180,o),
(72,236,c),
(44,236,l),
(44,163,o),
(103,104,o),
(179,104,cs)
);
},
{
closed = 1;
nodes = (
(72,0,l),
(72,56,o),
(120,104,o),
(179,104,cs),
(235,104,o),
(283,56,o),
(283,0,c),
(311,0,l),
(311,73,o),
(252,132,o),
(179,132,cs),
(103,132,o),
(44,73,o),
(44,0,c)
);
},
{
closed = 1;
nodes = (
(72,236,l),
(72,984,l),
(44,984,l),
(44,236,l)
);
},
{
closed = 1;
nodes = (
(311,236,l),
(311,984,l),
(283,984,l),
(283,236,l)
);
}
);
width = 355;
}
);
unicode = 120;
},
{
glyphname = y;
kernLeft = "20";
kernRight = "20";
lastChange = "2024-04-18 09:29:42 +0000";
layers = (
{
anchors = (
{
name = top;
pos = (179,1068);
}
);
hints = (
{
name = _corner.serif;
origin = (0,1);
type = Corner;
},
{
name = _corner.serif;
options = 1;
origin = (3,2);
scale = (-1,1);
type = Corner;
}
);
layerId = m01;
shapes = (
{
closed = 1;
nodes = (
(311,-351,l),
(311,984,l),
(283,984,l),
(283,-351,l)
);
},
{
closed = 1;
nodes = (
(252,-483,o),
(311,-424,o),
(311,-351,c),
(283,-351,l),
(283,-407,o),
(235,-455,o),
(176,-455,c),
(176,-483,l)
);
},
{
closed = 1;
nodes = (
(252,0,o),
(311,59,o),
(311,132,c),
(283,132,l),
(283,76,o),
(235,28,o),
(179,28,cs),
(120,28,o),
(72,76,o),
(72,132,c),
(44,132,l),
(44,59,o),
(103,0,o),
(179,0,cs)
);
},
{
closed = 1;
nodes = (
(72,132,l),
(72,984,l),
(44,984,l),
(44,132,l)
);
}
);
width = 355;
}
);
unicode = 121;
},
{
glyphname = z;
kernLeft = "20";
kernRight = "20";
lastChange = "2024-04-18 09:29:42 +0000";
layers = (
{
anchors = (
{
name = top;
pos = (126,1068);
}
);
layerId = m01;
shapes = (
{
closed = 1;
nodes = (
(58,0,l),
(219,984,l),
(190,984,l),
(30,0,l)
);
},
{
closed = 1;
nodes = (
(126,0,l),
(126,28,l),
(58,28,l),
(30,0,l)
);
},
{
closed = 1;
nodes = (
(162,0,o),
(196,17,o),
(219,39,c),
(199,59,l),
(179,39,o),
(154,28,o),
(126,28,c),
(126,0,l)
);
},
{
closed = 1;
nodes = (
(70,944,o),
(95,955,o),
(123,955,c),
(123,984,l),
(86,984,o),
(53,967,o),
(30,944,c),
(50,924,l)
);
},
{
closed = 1;
nodes = (
(190,955,l),
(219,984,l),
(123,984,l),
(123,955,l)
);
}
);
width = 249;
}
);
unicode = 122;
},
{
glyphname = ordfeminine;
kernLeft = "20";
kernRight = "20";
lastChange = "2024-04-18 09:43:17 +0000";
layers = (
{
layerId = m01;
shapes = (
{
closed = 1;
nodes = (
(58,1453,l),
(58,1509,o),
(106,1557,o),
(165,1557,cs),
(221,1557,o),
(269,1509,o),
(269,1453,c),
(297,1453,l),
(297,1526,o),
(238,1585,o),
(165,1585,cs),
(89,1585,o),
(30,1526,o),
(30,1453,c)
);
},
{
closed = 1;
nodes = (
(165,1220,l),
(106,1220,o),
(58,1267,o),
(58,1324,c),
(30,1324,l),
(30,1250,o),
(89,1191,o),
(165,1191,c)
);
},
{
closed = 1;
nodes = (
(58,1324,l),
(58,1453,l),
(30,1453,l),
(30,1324,l)
);
},
{
closed = 1;
nodes = (
(297,1191,l),
(297,1453,l),
(269,1453,l),
(269,1191,l)
);
}
);
width = 327;
}
);
unicode = 170;
userData = {
KernOnSpecialSpacing = {
L = superiors;
R = superiors;
};
};
},
{
glyphname = ordmasculine;
kernLeft = "20";
kernRight = "20";
lastChange = "2024-04-18 09:43:17 +0000";
layers = (
{
layerId = m01;
shapes = (
{
closed = 1;
nodes = (
(58,1447,l),
(58,1503,o),
(106,1551,o),
(165,1551,cs),
(221,1551,o),
(269,1503,o),
(269,1447,c),
(297,1447,l),
(297,1520,o),
(238,1579,o),
(165,1579,cs),
(89,1579,o),
(30,1520,o),
(30,1447,c)
);
},
{
closed = 1;
nodes = (
(238,1186,o),
(297,1245,o),
(297,1318,c),
(269,1318,l),
(269,1262,o),
(221,1214,o),
(165,1214,cs),
(106,1214,o),
(58,1262,o),
(58,1318,c),
(30,1318,l),
(30,1245,o),
(89,1186,o),
(165,1186,cs)
);
},
{
closed = 1;
nodes = (
(58,1318,l),
(58,1447,l),
(30,1447,l),
(30,1318,l)
);
},
{
closed = 1;
nodes = (
(297,1318,l),
(297,1447,l),
(269,1447,l),
(269,1318,l)
);
}
);
width = 327;
}
);
unicode = 186;
userData = {
KernOnSpecialSpacing = {
L = superiors;
R = superiors;
};
};
},
{
glyphname = "Be-cy";
lastChange = "2024-04-18 09:29:42 +0000";
layers = (
{
hints = (
{
name = _corner.serif;
origin = (0,26);
type = Corner;
}
);
layerId = m01;
shapes = (
{
closed = 1;
nodes = (
(252,0,o),
(311,59,o),
(311,132,cs),
(311,1093,ls),
(311,1166,o),
(252,1225,o),
(179,1225,c),
(179,1197,l),
(235,1197,o),
(283,1149,o),
(283,1093,cs),
(283,132,ls),
(283,76,o),
(235,28,o),
(176,28,c),
(72,28,l),
(72,1433,l),
(179,1433,ls),
(235,1433,o),
(283,1385,o),
(283,1329,c),
(311,1329,l),
(311,1402,o),
(252,1461,o),
(179,1461,cs),
(44,1461,l),
(44,0,l),
(176,0,l)
);
}
);
width = 341;
}
);
unicode = 1041;
},
{
glyphname = "De-cy";
lastChange = "2024-04-18 09:29:42 +0000";
layers = (
{
hints = (
{
name = _corner.serif;
origin = (0,0);
type = Corner;
},
{
name = _corner.serif;
options = 1;
origin = (0,7);
scale = (-1,1);
type = Corner;
}
);
layerId = m01;
shapes = (
{
closed = 1;
nodes = (
(43,0,l),
(71,0,l),
(139,1377,ls),
(142,1453,o),
(215,1453,o),
(217,1377,cs),
(282,0,l),
(310,0,l),
(246,1383,ls),
(240,1486,o),
(116,1486,o),
(111,1383,cs)
);
},
{
closed = 1;
nodes = (
(60,0,l),
(296,0,l),
(296,28,l),
(60,28,l)
);
}
);
width = 353;
}
);
unicode = 1044;
},
{
glyphname = "Zhe-cy";
lastChange = "2024-04-18 09:29:42 +0000";
layers = (
{
hints = (
{
name = _corner.serif;
options = 1;
origin = (1,0);
scale = (-1,1);
type = Corner;
},
{
name = _corner.serif;
origin = (5,2);
type = Corner;
}
);
layerId = m01;
shapes = (
{
closed = 1;
nodes = (
(311,0,l),
(311,1461,l),
(283,1461,l),
(283,0,l)
);
},
{
closed = 1;
nodes = (
(550,0,l),
(550,458,l),
(522,458,l),
(522,0,l)
);
},
{
closed = 1;
nodes = (
(311,458,l),
(311,514,o),
(359,562,o),
(418,562,cs),
(474,562,o),
(522,514,o),
(522,458,c),
(550,458,l),
(550,531,o),
(491,590,o),
(418,590,cs),
(342,590,o),
(283,531,o),
(283,458,c)
);
},
{
closed = 1;
nodes = (
(491,562,o),
(550,621,o),
(550,694,c),
(522,694,l),
(522,638,o),
(474,590,o),
(418,590,c),
(418,562,l)
);
},
{
closed = 1;
nodes = (
(550,694,l),
(550,1461,l),
(522,1461,l),
(522,694,l)
);
},
{
closed = 1;
nodes = (
(72,458,l),
(44,458,l),
(44,0,l),
(72,0,l)
);
},
{
closed = 1;
nodes = (
(311,531,o),
(252,590,o),
(176,590,cs),
(103,590,o),
(44,531,o),
(44,458,c),
(72,458,l),
(72,514,o),
(120,562,o),
(176,562,cs),
(235,562,o),
(283,514,o),
(283,458,c),
(311,458,l)
);
},
{
closed = 1;
nodes = (
(176,590,l),
(120,590,o),
(72,638,o),
(72,694,c),
(44,694,l),
(44,621,o),
(103,562,o),
(176,562,c)
);
},
{
closed = 1;
nodes = (
(72,1461,l),
(44,1461,l),
(44,694,l),
(72,694,l)
);
}
);
width = 594;
}
);
unicode = 1046;
},
{
glyphname = "Ii-cy";
lastChange = "2024-04-18 09:29:42 +0000";
layers = (
{
hints = (
{
name = _corner.serif;
options = 1;
origin = (3,0);
scale = (-1,1);
type = Corner;
}
);
layerId = m01;
shapes = (
{
closed = 1;
nodes = (
(58,0,l),
(58,1461,l),
(30,1461,l),
(30,0,l)
);
},
{
closed = 1;
nodes = (
(165,0,l),
(165,28,l),
(30,28,l),
(30,0,l)
);
},
{
closed = 1;
nodes = (
(238,0,o),
(297,59,o),
(297,132,c),
(269,132,l),
(269,76,o),
(221,28,o),
(165,28,c),
(165,0,l)
);
},
{
closed = 1;
nodes = (
(297,0,l),
(297,1461,l),
(269,1461,l),
(269,0,l)
);
}
);
width = 341;
}
);
unicode = 1048;
},
{
glyphname = "Iishort-cy";
lastChange = "2024-04-18 09:29:42 +0000";
layers = (
{
hints = (
{
name = _corner.serif;
options = 1;
origin = (3,0);
scale = (-1,1);
type = Corner;
}
);
layerId = m01;
shapes = (
{
closed = 1;
nodes = (
(58,0,l),
(58,1461,l),
(30,1461,l),
(30,0,l)
);
},
{
closed = 1;
nodes = (
(165,0,l),
(165,28,l),
(30,28,l),
(30,0,l)
);
},
{
closed = 1;
nodes = (
(238,0,o),
(297,59,o),
(297,132,c),
(269,132,l),
(269,76,o),
(221,28,o),
(165,28,c),
(165,0,l)
);
},
{
closed = 1;
nodes = (
(297,0,l),
(297,1461,l),
(269,1461,l),
(269,0,l)
);
},
{
closed = 1;
nodes = (
(238,1633,o),
(297,1692,o),
(297,1765,c),
(269,1765,l),
(269,1708,o),
(221,1661,o),
(165,1661,cs),
(106,1661,o),
(58,1708,o),
(58,1765,c),
(30,1765,l),
(30,1692,o),
(89,1633,o),
(165,1633,cs)
);
}
);
width = 341;
}
);
unicode = 1049;
},
{
glyphname = "Em-cy";
lastChange = "2024-04-18 09:29:42 +0000";
layers = (
{
hints = (
{
name = _corner.serif;
options = 1;
origin = (0,0);
scale = (-1,1);
type = Corner;
},
{
name = _corner.serif;
origin = (1,3);
type = Corner;
}
);
layerId = m01;
shapes = (
{
closed = 1;
nodes = (
(550,0,l),
(550,1461,l),
(522,1461,l),
(522,0,l)
);
},
{
closed = 1;
nodes = (
(72,0,l),
(72,1461,l),
(44,1461,l),
(44,0,l)
);
},
{
closed = 1;
nodes = (
(311,0,l),
(311,1329,l),
(283,1329,l),
(283,0,l)
);
},
{
closed = 1;
nodes = (
(179,1433,l),
(179,1461,l),
(55,1461,l),
(55,1433,l)
);
},
{
closed = 1;
nodes = (
(311,1329,l),
(311,1402,o),
(252,1461,o),
(179,1461,c),
(179,1433,l),
(235,1433,o),
(283,1385,o),
(283,1329,c)
);
},
{
closed = 1;
nodes = (
(311,1329,l),
(311,1385,o),
(359,1433,o),
(418,1433,c),
(418,1461,l),
(342,1461,o),
(283,1402,o),
(283,1329,c)
);
},
{
closed = 1;
nodes = (
(536,1433,l),
(536,1461,l),
(418,1461,l),
(418,1433,l)
);
}
);
width = 594;
}
);
unicode = 1052;
},
{
glyphname = "Pe-cy";
lastChange = "2024-04-18 09:29:42 +0000";
layers = (
{
anchors = (
{
name = top;
pos = (176,1546);
}
);
hints = (
{
name = _corner.serif;
options = 1;
origin = (0,7);
scale = (-1,1);
type = Corner;
},
{
name = _corner.serif;
origin = (0,13);
type = Corner;
}
);
layerId = m01;
shapes = (
{
closed = 1;
nodes = (
(72,0,l),
(72,1433,l),
(179,1433,ls),
(235,1433,o),
(283,1385,o),
(283,1329,cs),
(283,0,l),
(311,0,l),
(311,1329,ls),
(311,1402,o),
(252,1461,o),
(179,1461,cs),
(44,1461,l),
(44,0,l)
);
}
);
width = 355;
}
);
unicode = 1055;
},
{
glyphname = "U-cy";
lastChange = "2024-04-18 09:29:42 +0000";
layers = (
{
anchors = (
{
name = top;
pos = (179,1546);
}
);
hints = (
{
name = _corner.serif;
options = 1;
origin = (1,3);
scale = (-1,1);
type = Corner;
},
{
name = _corner.serif;
origin = (3,2);
type = Corner;
}
);
layerId = m01;
shapes = (
{
closed = 1;
nodes = (
(44,930,o),
(103,871,o),
(179,871,cs),
(252,871,o),
(311,930,o),
(311,1003,c),
(283,1003,l),
(283,947,o),
(235,899,o),
(179,899,cs),
(120,899,o),
(72,947,o),
(72,1003,c),
(44,1003,l)
);
},
{
closed = 1;
nodes = (
(44,1003,l),
(72,1003,l),
(72,1461,l),
(44,1461,l)
);
},
{
closed = 1;
nodes = (
(44,59,o),
(103,0,o),
(179,0,cs),
(252,0,o),
(311,59,o),
(311,132,c),
(283,132,l),
(283,76,o),
(235,28,o),
(179,28,cs),
(120,28,o),
(72,76,o),
(72,132,c),
(44,132,l)
);
},
{
closed = 1;
nodes = (
(283,132,l),
(311,132,l),
(311,1461,l),
(283,1461,l)
);
}
);
width = 355;
}
);
unicode = 1059;
},
{
glyphname = "Ef-cy";
lastChange = "2024-04-18 09:29:42 +0000";
layers = (
{
hints = (
{
name = _corner.serif;
options = 1;
origin = (0,0);
scale = (-1,1);
type = Corner;
},
{
name = _corner.serif;
origin = (0,28);
type = Corner;
}
);
layerId = m01;
shapes = (
{
closed = 1;
nodes = (
(297,0,l),
(297,613,l),
(322,582,o),
(359,562,o),
(404,562,cs),
(477,562,o),
(536,621,o),
(536,694,cs),
(536,1329,ls),
(536,1402,o),
(477,1461,o),
(404,1461,cs),
(351,1461,o),
(306,1430,o),
(283,1388,c),
(261,1430,o),
(216,1461,o),
(162,1461,cs),
(89,1461,o),
(30,1402,o),
(30,1329,cs),
(30,694,ls),
(30,621,o),
(89,562,o),
(162,562,cs),
(207,562,o),
(244,582,o),
(269,613,c),
(269,0,l)
);
},
{
closed = 1;
nodes = (
(106,590,o),
(58,638,o),
(58,694,cs),
(58,1329,ls),
(58,1385,o),
(106,1433,o),
(162,1433,cs),
(221,1433,o),
(269,1385,o),
(269,1329,cs),
(269,694,ls),
(269,638,o),
(221,590,o),
(162,590,cs)
);
},
{
closed = 1;
nodes = (
(345,590,o),
(297,638,o),
(297,694,cs),
(297,1329,ls),
(297,1385,o),
(345,1433,o),
(404,1433,cs),
(460,1433,o),
(508,1385,o),
(508,1329,cs),
(508,694,ls),
(508,638,o),
(460,590,o),
(404,590,cs)
);
}
);
width = 566;
}
);
unicode = 1060;
},
{
glyphname = "Tse-cy";
lastChange = "2024-04-18 09:29:42 +0000";
layers = (
{
hints = (
{
name = _corner.serif;
options = 1;
origin = (0,2);
scale = (-1,1);
type = Corner;
},
{
name = _corner.serif;
origin = (3,1);
type = Corner;
}
);
layerId = m01;
shapes = (
{
closed = 1;
nodes = (
(72,0,l),
(72,1461,l),
(44,1461,l),
(44,0,l)
);
},
{
closed = 1;
nodes = (
(179,0,l),
(179,28,l),
(44,28,l),
(44,0,l)
);
},
{
closed = 1;
nodes = (
(252,0,o),
(311,59,o),
(311,132,c),
(283,132,l),
(283,76,o),
(235,28,o),
(179,28,c),
(179,0,l)
);
},
{
closed = 1;
nodes = (
(311,28,l),
(311,1461,l),
(283,1461,l),
(283,28,l)
);
},
{
closed = 1;
nodes = (
(418,-76,l),
(359,-76,o),
(311,-28,o),
(311,28,c),
(283,28,l),
(283,-45,o),
(342,-104,o),
(418,-104,c)
);
}
);
width = 448;
}
);
unicode = 1062;
},
{
glyphname = "Shcha-cy";
lastChange = "2024-04-18 09:29:42 +0000";
layers = (
{
anchors = (
{
name = top;
pos = (297,1546);
}
);
hints = (
{
name = _corner.serif;
options = 1;
origin = (0,26);
scale = (-1,1);
type = Corner;
},
{
name = _corner.serif;
origin = (1,4);
type = Corner;
}
);
layerId = m01;
shapes = (
{
closed = 1;
nodes = (
(230,0,o),
(275,31,o),
(297,73,c),
(320,31,o),
(365,0,o),
(418,0,cs),
(491,0,o),
(550,59,o),
(550,132,c),
(522,132,l),
(522,76,o),
(474,28,o),
(418,28,cs),
(359,28,o),
(311,76,o),
(311,132,cs),
(311,1461,l),
(283,1461,l),
(283,132,ls),
(283,76,o),
(235,28,o),
(179,28,cs),
(120,28,o),
(72,76,o),
(72,132,cs),
(72,1461,l),
(44,1461,l),
(44,132,ls),
(44,59,o),
(103,0,o),
(179,0,cs)
);
},
{
closed = 1;
nodes = (
(657,-76,l),
(598,-76,o),
(550,-28,o),
(550,28,cs),
(550,1461,l),
(522,1461,l),
(522,28,ls),
(522,-45,o),
(581,-104,o),
(657,-104,c)
);
}
);
width = 687;
}
);
unicode = 1065;
},
{
glyphname = "Softsign-cy";
lastChange = "2024-04-18 09:29:42 +0000";
layers = (
{
hints = (
{
name = _corner.serif;
options = 1;
origin = (0,11);
scale = (-1,1);
type = Corner;
}
);
layerId = m01;
shapes = (
{
closed = 1;
nodes = (
(252,0,o),
(311,59,o),
(311,132,cs),
(311,767,ls),
(311,840,o),
(252,899,o),
(179,899,cs),
(134,899,o),
(98,880,o),
(72,849,c),
(72,1461,l),
(44,1461,l),
(44,132,ls),
(44,59,o),
(103,0,o),
(179,0,cs)
);
},
{
closed = 1;
nodes = (
(120,28,o),
(72,76,o),
(72,132,cs),
(72,767,ls),
(72,823,o),
(120,871,o),
(179,871,cs),
(235,871,o),
(283,823,o),
(283,767,cs),
(283,132,ls),
(283,76,o),
(235,28,o),
(179,28,cs)
);
}
);
width = 341;
}
);
unicode = 1068;
},
{
glyphname = "Yeru-cy";
lastChange = "2024-04-18 09:29:42 +0000";
layers = (
{
anchors = (
{
name = top;
pos = (466,1546);
}
);
hints = (
{
name = _corner.serif;
options = 1;
origin = (0,11);
scale = (-1,1);
type = Corner;
},
{
name = _corner.serif;
options = 1;
origin = (2,0);
scale = (-1,1);
type = Corner;
},
{
name = _corner.serif;
options = 2;
origin = (2,1);
type = Corner;
}
);
layerId = m01;
shapes = (
{
closed = 1;
nodes = (
(252,0,o),
(311,59,o),
(311,132,cs),
(311,767,ls),
(311,840,o),
(252,899,o),
(179,899,cs),
(134,899,o),
(98,880,o),
(72,849,c),
(72,1461,l),
(44,1461,l),
(44,132,ls),
(44,59,o),
(103,0,o),
(179,0,cs)
);
},
{
closed = 1;
nodes = (
(120,28,o),
(72,76,o),
(72,132,cs),
(72,767,ls),
(72,823,o),
(120,871,o),
(179,871,cs),
(235,871,o),
(283,823,o),
(283,767,cs),
(283,132,ls),
(283,76,o),
(235,28,o),
(179,28,cs)
);
},
{
closed = 1;
nodes = (
(480,0,l),
(480,1461,l),
(452,1461,l),
(452,0,l)
);
}
);
width = 524;
}
);
unicode = 1067;
},
{
glyphname = "Hardsign-cy";
lastChange = "2024-04-18 09:29:42 +0000";
layers = (
{
layerId = m01;
shapes = (
{
closed = 1;
nodes = (
(165,132,l),
(165,1329,ls),
(165,1402,o),
(106,1461,o),
(30,1461,c),
(30,1433,l),
(89,1433,o),
(137,1385,o),
(137,1329,cs),
(137,132,l)
);
},
{
closed = 1;
nodes = (
(345,0,o),
(404,59,o),
(404,132,c),
(376,132,l),
(376,76,o),
(328,28,o),
(272,28,cs),
(213,28,o),
(165,76,o),
(165,132,c),
(137,132,l),
(137,59,o),
(196,0,o),
(272,0,cs)
);
},
{
closed = 1;
nodes = (
(404,132,l),
(404,767,l),
(376,767,l),
(376,132,l)
);
},
{
closed = 1;
nodes = (
(165,767,l),
(165,823,o),
(213,871,o),
(272,871,cs),
(328,871,o),
(376,823,o),
(376,767,c),
(404,767,l),
(404,840,o),
(345,899,o),
(272,899,cs),
(196,899,o),
(137,840,o),
(137,767,c)
);
}
);
width = 434;
}
);
unicode = 1066;
},
{
glyphname = "Ereversed-cy";
lastChange = "2024-04-18 09:29:42 +0000";
layers = (
{
anchors = (
{
name = top;
pos = (162,1546);
}
);
layerId = m01;
shapes = (
{
closed = 1;
nodes = (
(297,132,l),
(297,1329,ls),
(297,1402,o),
(238,1461,o),
(162,1461,cs),
(89,1461,o),
(30,1402,o),
(30,1329,c),
(58,1329,l),
(58,1385,o),
(106,1433,o),
(162,1433,cs),
(221,1433,o),
(269,1385,o),
(269,1329,cs),
(269,132,l)
);
},
{
closed = 1;
nodes = (
(238,0,o),
(297,59,o),
(297,132,c),
(269,132,l),
(269,76,o),
(221,28,o),
(162,28,cs),
(106,28,o),
(58,76,o),
(58,132,c),
(30,132,l),
(30,59,o),
(89,0,o),
(162,0,cs)
);
},
{
closed = 1;
nodes = (
(278,717,l),
(278,745,l),
(162,745,l),
(162,717,l)
);
}
);
width = 327;
}
);
unicode = 1069;
},
{
glyphname = "Yu-cy";
lastChange = "2024-04-18 09:29:42 +0000";
layers = (
{
hints = (
{
name = _corner.serif;
origin = (0,3);
type = Corner;
}
);
layerId = m01;
shapes = (
{
closed = 1;
nodes = (
(72,0,l),
(72,1461,l),
(44,1461,l),
(44,0,l)
);
},
{
closed = 1;
nodes = (
(311,1329,l),
(311,1385,o),
(359,1433,o),
(418,1433,cs),
(474,1433,o),
(522,1385,o),
(522,1329,c),
(550,1329,l),
(550,1402,o),
(491,1461,o),
(418,1461,cs),
(342,1461,o),
(283,1402,o),
(283,1329,c)
);
},
{
closed = 1;
nodes = (
(491,0,o),
(550,59,o),
(550,132,c),
(522,132,l),
(522,76,o),
(474,28,o),
(418,28,cs),
(359,28,o),
(311,76,o),
(311,132,c),
(283,132,l),
(283,59,o),
(342,0,o),
(418,0,cs)
);
},
{
closed = 1;
nodes = (
(311,132,l),
(311,1329,l),
(283,1329,l),
(283,132,l)
);
},
{
closed = 1;
nodes = (
(550,132,l),
(550,1329,l),
(522,1329,l),
(522,132,l)
);
},
{
closed = 1;
nodes = (
(72,132,l),
(72,188,o),
(120,236,o),
(179,236,cs),
(235,236,o),
(283,188,o),
(283,132,c),
(311,132,l),
(311,205,o),
(252,264,o),
(179,264,cs),
(103,264,o),
(44,205,o),
(44,132,c)
);
}
);
width = 580;
}
);
unicode = 1070;
},
{
glyphname = "be-cy";
lastChange = "2024-04-18 09:29:42 +0000";
layers = (
{
layerId = m01;
shapes = (
{
closed = 1;
nodes = (
(58,132,l),
(58,1329,l),
(30,1329,l),
(30,132,l)
);
},
{
closed = 1;
nodes = (
(238,0,o),
(297,59,o),
(297,132,c),
(269,132,l),
(269,76,o),
(221,28,o),
(162,28,cs),
(106,28,o),
(58,76,o),
(58,132,c),
(30,132,l),
(30,59,o),
(89,0,o),
(162,0,cs)
);
},
{
closed = 1;
nodes = (
(297,132,l),
(297,851,l),
(269,851,l),
(269,132,l)
);
},
{
closed = 1;
nodes = (
(297,851,l),
(297,924,o),
(238,984,o),
(162,984,c),
(162,955,l),
(221,955,o),
(269,908,o),
(269,851,c)
);
},
{
closed = 1;
nodes = (
(58,1329,l),
(58,1385,o),
(106,1433,o),
(165,1433,c),
(165,1461,l),
(89,1461,o),
(30,1402,o),
(30,1329,c)
);
}
);
width = 327;
}
);
unicode = 1073;
},
{
glyphname = "ve-cy";
lastChange = "2024-04-18 09:29:42 +0000";
layers = (
{
layerId = m01;
shapes = (
{
closed = 1;
nodes = (
(58,1329,l),
(58,1385,o),
(106,1433,o),
(162,1433,cs),
(221,1433,o),
(269,1385,o),
(269,1329,c),
(297,1329,l),
(297,1402,o),
(238,1461,o),
(162,1461,cs),
(89,1461,o),
(30,1402,o),
(30,1329,c)
);
},
{
closed = 1;
nodes = (
(238,0,o),
(297,59,o),
(297,132,c),
(269,132,l),
(269,76,o),
(221,28,o),
(162,28,cs),
(106,28,o),
(58,76,o),
(58,132,c),
(30,132,l),
(30,59,o),
(89,0,o),
(162,0,cs)
);
},
{
closed = 1;
nodes = (
(58,132,l),
(58,1329,l),
(30,1329,l),
(30,132,l)
);
},
{
closed = 1;
nodes = (
(297,132,l),
(297,851,l),
(269,851,l),
(269,132,l)
);
},
{
closed = 1;
nodes = (
(297,851,l),
(297,924,o),
(238,984,o),
(162,984,c),
(162,955,l),
(221,955,o),
(269,908,o),
(269,851,c)
);
},
{
closed = 1;
nodes = (
(238,955,o),
(297,1014,o),
(297,1087,c),
(269,1087,l),
(269,1031,o),
(221,984,o),
(162,984,c),
(162,955,l)
);
},
{
closed = 1;
nodes = (
(297,1087,l),
(297,1329,l),
(269,1329,l),
(269,1087,l)
);
}
);
width = 327;
}
);
unicode = 1074;
},
{
glyphname = "ge-cy";
lastChange = "2024-04-18 09:29:42 +0000";
layers = (
{
hints = (
{
name = _corner.serif;
origin = (0,3);
type = Corner;
}
);
layerId = m01;
shapes = (
{
closed = 1;
nodes = (
(72,0,l),
(72,851,l),
(44,851,l),
(44,0,l)
);
},
{
closed = 1;
nodes = (
(72,851,l),
(72,908,o),
(120,955,o),
(179,955,c),
(179,984,l),
(103,984,o),
(44,924,o),
(44,851,c)
);
}
);
width = 209;
}
);
unicode = 1075;
},
{
glyphname = "de-cy";
lastChange = "2024-04-18 09:29:42 +0000";
layers = (
{
layerId = m01;
shapes = (
{
closed = 1;
nodes = (
(269,851,l),
(269,-346,l),
(297,-346,l),
(297,851,l)
);
},
{
closed = 1;
nodes = (
(89,984,o),
(30,924,o),
(30,851,c),
(58,851,l),
(58,908,o),
(106,955,o),
(165,955,cs),
(221,955,o),
(269,908,o),
(269,851,c),
(297,851,l),
(297,924,o),
(238,984,o),
(165,984,cs)
);
},
{
closed = 1;
nodes = (
(30,851,l),
(30,132,l),
(58,132,l),
(58,851,l)
);
},
{
closed = 1;
nodes = (
(30,132,l),
(30,59,o),
(89,0,o),
(165,0,c),
(165,28,l),
(106,28,o),
(58,76,o),
(58,132,c)
);
},
{
closed = 1;
nodes = (
(269,-346,l),
(269,-402,o),
(221,-450,o),
(162,-450,c),
(162,-478,l),
(238,-478,o),
(297,-419,o),
(297,-346,c)
);
}
);
width = 327;
}
);
unicode = 1076;
},
{
glyphname = "zhe-cy";
lastChange = "2024-04-18 09:29:42 +0000";
layers = (
{
hints = (
{
name = _corner.serif;
origin = (0,32);
type = Corner;
},
{
name = _corner.serif;
options = 2;
origin = (0,33);
scale = (-1,1);
type = Corner;
}
);
layerId = m01;
shapes = (
{
closed = 1;
nodes = (
(58,0,l),
(58,59,o),
(106,107,o),
(162,107,cs),
(207,107,o),
(244,126,o),
(269,157,c),
(269,0,l),
(297,0,l),
(297,157,l),
(322,126,o),
(359,107,o),
(404,107,cs),
(460,107,o),
(508,59,o),
(508,0,c),
(536,0,l),
(536,53,o),
(505,98,o),
(463,121,c),
(505,143,o),
(536,188,o),
(536,239,cs),
(536,984,l),
(508,984,l),
(508,239,ls),
(508,183,o),
(460,135,o),
(404,135,cs),
(345,135,o),
(297,183,o),
(297,239,cs),
(297,1461,l),
(269,1461,l),
(269,239,ls),
(269,183,o),
(221,135,o),
(162,135,cs),
(106,135,o),
(58,183,o),
(58,239,cs),
(58,984,l),
(30,984,l),
(30,239,ls),
(30,188,o),
(61,143,o),
(103,121,c),
(61,98,o),
(30,53,o),
(30,0,c)
);
}
);
width = 566;
}
);
unicode = 1078;
},
{
glyphname = "ze-cy";
lastChange = "2024-04-18 09:29:42 +0000";
layers = (
{
layerId = m01;
shapes = (
{
closed = 1;
nodes = (
(30,-419,o),
(89,-478,o),
(162,-478,cs),
(238,-478,o),
(297,-419,o),
(297,-346,c),
(269,-346,l),
(269,-402,o),
(221,-450,o),
(162,-450,cs),
(106,-450,o),
(58,-402,o),
(58,-346,c),
(30,-346,l)
);
},
{
closed = 1;
nodes = (
(89,984,o),
(30,924,o),
(30,851,c),
(58,851,l),
(58,908,o),
(106,955,o),
(162,955,cs),
(221,955,o),
(269,908,o),
(269,851,c),
(297,851,l),
(297,924,o),
(238,984,o),
(162,984,cs)
);
},
{
closed = 1;
nodes = (
(269,132,l),
(297,132,l),
(297,851,l),
(269,851,l)
);
},
{
closed = 1;
nodes = (
(269,76,o),
(221,28,o),
(162,28,c),
(162,0,l),
(238,0,o),
(297,59,o),
(297,132,c),
(269,132,l)
);
},
{
closed = 1;
nodes = (
(162,0,l),
(221,0,o),
(269,-48,o),
(269,-104,c),
(297,-104,l),
(297,-31,o),
(238,28,o),
(162,28,c)
);
},
{
closed = 1;
nodes = (
(269,-346,l),
(297,-346,l),
(297,-104,l),
(269,-104,l)
);
}
);
width = 327;
}
);
unicode = 1079;
},
{
glyphname = "ii-cy";
lastChange = "2024-04-18 09:29:42 +0000";
layers = (
{
hints = (
{
name = _corner.serif;
options = 1;
origin = (2,0);
scale = (-1,1);
type = Corner;
}
);
layerId = m01;
shapes = (
{
closed = 1;
nodes = (
(238,0,o),
(297,59,o),
(297,132,c),
(269,132,l),
(269,76,o),
(221,28,o),
(165,28,cs),
(106,28,o),
(58,76,o),
(58,132,c),
(30,132,l),
(30,59,o),
(89,0,o),
(165,0,cs)
);
},
{
closed = 1;
nodes = (
(58,132,l),
(58,984,l),
(30,984,l),
(30,132,l)
);
},
{
closed = 1;
nodes = (
(297,0,l),
(297,984,l),
(269,984,l),
(269,0,l)
);
}
);
width = 341;
}
);
unicode = 1080;
},
{
glyphname = "iishort-cy";
lastChange = "2024-04-18 09:29:42 +0000";
layers = (
{
hints = (
{
name = _corner.serif;
options = 1;
origin = (2,0);
scale = (-1,1);
type = Corner;
}
);
layerId = m01;
shapes = (
{
closed = 1;
nodes = (
(238,0,o),
(297,59,o),
(297,132,c),
(269,132,l),
(269,76,o),
(221,28,o),
(165,28,cs),
(106,28,o),
(58,76,o),
(58,132,c),
(30,132,l),
(30,59,o),
(89,0,o),
(165,0,cs)
);
},
{
closed = 1;
nodes = (
(58,132,l),
(58,984,l),
(30,984,l),
(30,132,l)
);
},
{
closed = 1;
nodes = (
(297,0,l),
(297,984,l),
(269,984,l),
(269,0,l)
);
},
{
closed = 1;
nodes = (
(238,1158,o),
(297,1217,o),
(297,1290,c),
(269,1290,l),
(269,1234,o),
(221,1186,o),
(165,1186,cs),
(106,1186,o),
(58,1234,o),
(58,1290,c),
(30,1290,l),
(30,1217,o),
(89,1158,o),
(165,1158,cs)
);
}
);
width = 341;
}
);
unicode = 1081;
},
{
glyphname = "ka-cy";
lastChange = "2024-04-18 09:29:42 +0000";
layers = (
{
hints = (
{
name = _corner.serif;
options = 1;
origin = (0,25);
scale = (-1,1);
type = Corner;
}
);
layerId = m01;
shapes = (
{
closed = 1;
nodes = (
(72,0,l),
(72,157,l),
(98,126,o),
(134,107,o),
(179,107,cs),
(235,107,o),
(283,59,o),
(283,0,c),
(311,0,l),
(311,53,o),
(280,98,o),
(238,121,c),
(280,143,o),
(311,188,o),
(311,239,cs),
(311,984,l),
(283,984,l),
(283,239,ls),
(283,183,o),
(235,135,o),
(179,135,cs),
(120,135,o),
(72,183,o),
(72,239,cs),
(72,1461,l),
(44,1461,l),
(44,0,l)
);
}
);
width = 341;
}
);
unicode = 1082;
},
{
glyphname = "el-cy";
lastChange = "2024-04-18 09:29:42 +0000";
layers = (
{
hints = (
{
name = _corner.serif;
options = 1;
origin = (0,4);
scale = (-1,1);
type = Corner;
},
{
name = _corner.serif;
origin = (0,9);
type = Corner;
}
);
layerId = m01;
shapes = (
{
closed = 1;
nodes = (
(129,975,o),
(228,975,o),
(231,902,cs),
(281,0,l),
(309,0,l),
(259,899,ls),
(253,1012,o),
(103,1012,o),
(96,899,cs),
(42,0,l),
(70,0,l),
(124,902,ls)
);
}
);
width = 351;
}
);
unicode = 1083;
},
{
glyphname = "em-cy";
lastChange = "2024-04-18 09:29:42 +0000";
layers = (
{
hints = (
{
name = _corner.serif;
origin = (0,9);
type = Corner;
},
{
name = _corner.serif;
options = 1;
origin = (1,4);
scale = (-1,1);
type = Corner;
}
);
layerId = m01;
shapes = (
{
closed = 1;
nodes = (
(129,975,o),
(228,975,o),
(230,902,cs),
(281,0,l),
(309,0,l),
(259,899,ls),
(253,1012,o),
(101,1012,o),
(96,899,cs),
(42,0,l),
(70,0,l),
(124,902,ls)
);
},
{
closed = 1;
nodes = (
(368,975,o),
(467,975,o),
(469,902,cs),
(520,0,l),
(548,0,l),
(497,899,ls),
(492,1012,o),
(340,1012,o),
(334,899,cs),
(281,0,l),
(309,0,l),
(363,902,ls)
);
}
);
width = 590;
}
);
unicode = 1084;
},
{
glyphname = "en-cy";
lastChange = "2024-04-18 09:29:42 +0000";
layers = (
{
hints = (
{
name = _corner.serif;
options = 1;
origin = (0,2);
scale = (-1,1);
type = Corner;
},
{
name = _corner.serif;
origin = (2,1);
type = Corner;
}
);
layerId = m01;
shapes = (
{
closed = 1;
nodes = (
(72,0,l),
(72,984,l),
(44,984,l),
(44,0,l)
);
},
{
closed = 1;
nodes = (
(252,357,o),
(311,416,o),
(311,489,c),
(283,489,l),
(283,433,o),
(235,385,o),
(179,385,cs),
(120,385,o),
(72,433,o),
(72,489,c),
(44,489,l),
(44,416,o),
(103,357,o),
(179,357,cs)
);
},
{
closed = 1;
nodes = (
(311,0,l),
(311,984,l),
(283,984,l),
(283,0,l)
);
}
);
width = 355;
}
);
unicode = 1085;
},
{
glyphname = "te-cy";
lastChange = "2024-04-18 09:29:42 +0000";
layers = (
{
hints = (
{
name = _corner.serif;
origin = (0,3);
type = Corner;
}
);
layerId = m01;
shapes = (
{
closed = 1;
nodes = (
(177,0,l),
(177,851,l),
(149,851,l),
(149,0,l)
);
},
{
closed = 1;
nodes = (
(177,851,l),
(177,908,o),
(225,955,o),
(284,955,c),
(284,984,l),
(208,984,o),
(149,924,o),
(149,851,c)
);
},
{
closed = 1;
nodes = (
(30,955,l),
(297,955,l),
(297,984,l),
(30,984,l)
);
}
);
width = 327;
}
);
unicode = 1090;
},
{
glyphname = "ef-cy";
lastChange = "2024-04-18 09:29:42 +0000";
layers = (
{
hints = (
{
name = _corner.serif;
options = 1;
origin = (0,0);
scale = (-1,1);
type = Corner;
},
{
name = _corner.serif;
origin = (0,44);
type = Corner;
}
);
layerId = m01;
shapes = (
{
closed = 1;
nodes = (
(297,-478,l),
(297,851,ls),
(297,908,o),
(345,955,o),
(401,955,cs),
(460,955,o),
(508,908,o),
(508,851,cs),
(508,132,ls),
(508,76,o),
(460,28,o),
(401,28,c),
(401,0,l),
(477,0,o),
(536,59,o),
(536,132,cs),
(536,851,ls),
(536,924,o),
(477,984,o),
(401,984,cs),
(351,984,o),
(306,953,o),
(283,910,c),
(261,953,o),
(216,984,o),
(165,984,cs),
(89,984,o),
(30,924,o),
(30,851,cs),
(30,132,ls),
(30,59,o),
(89,0,o),
(165,0,c),
(165,28,l),
(106,28,o),
(58,76,o),
(58,132,cs),
(58,851,ls),
(58,908,o),
(106,955,o),
(165,955,cs),
(221,955,o),
(269,908,o),
(269,851,cs),
(269,-478,l)
);
}
);
width = 566;
}
);
unicode = 1092;
},
{
glyphname = "ha-cy";
lastChange = "2024-04-18 09:29:42 +0000";
layers = (
{
hints = (
{
name = _corner.serif;
options = 1;
origin = (2,2);
scale = (-1,1);
type = Corner;
},
{
name = _corner.serif;
origin = (3,1);
type = Corner;
}
);
layerId = m01;
shapes = (
{
closed = 1;
nodes = (
(252,104,o),
(311,163,o),
(311,236,c),
(283,236,l),
(283,180,o),
(235,132,o),
(179,132,cs),
(120,132,o),
(72,180,o),
(72,236,c),
(44,236,l),
(44,163,o),
(103,104,o),
(179,104,cs)
);
},
{
closed = 1;
nodes = (
(72,0,l),
(72,56,o),
(120,104,o),
(179,104,cs),
(235,104,o),
(283,56,o),
(283,0,c),
(311,0,l),
(311,73,o),
(252,132,o),
(179,132,cs),
(103,132,o),
(44,73,o),
(44,0,c)
);
},
{
closed = 1;
nodes = (
(72,236,l),
(72,984,l),
(44,984,l),
(44,236,l)
);
},
{
closed = 1;
nodes = (
(311,236,l),
(311,984,l),
(283,984,l),
(283,236,l)
);
}
);
width = 355;
}
);
unicode = 1093;
},
{
glyphname = "che-cy";
lastChange = "2024-04-18 10:07:03 +0000";
layers = (
{
hints = (
{
name = _corner.serif;
options = 1;
origin = (1,2);
scale = (-1,1);
type = Corner;
},
{
name = _corner.serif;
origin = (2,1);
type = Corner;
}
);
layerId = m01;
shapes = (
{
closed = 1;
nodes = (
(252,104,o),
(311,163,o),
(311,236,c),
(283,236,l),
(283,180,o),
(235,132,o),
(179,132,cs),
(120,132,o),
(72,180,o),
(72,236,c),
(44,236,l),
(44,163,o),
(103,104,o),
(179,104,cs)
);
},
{
closed = 1;
nodes = (
(72,236,l),
(72,984,l),
(44,984,l),
(44,236,l)
);
},
{
closed = 1;
nodes = (
(311,0,l),
(311,984,l),
(283,984,l),
(283,0,l)
);
}
);
width = 355;
}
);
unicode = 1095;
userData = {
KernOnName = "che-cy";
};
},
{
glyphname = "tse-cy";
lastChange = "2024-04-18 09:29:42 +0000";
layers = (
{
hints = (
{
name = _corner.serif;
options = 1;
origin = (1,2);
scale = (-1,1);
type = Corner;
},
{
name = _corner.serif;
origin = (2,1);
type = Corner;
}
);
layerId = m01;
shapes = (
{
closed = 1;
nodes = (
(252,0,o),
(311,59,o),
(311,132,c),
(283,132,l),
(283,76,o),
(235,28,o),
(179,28,cs),
(120,28,o),
(72,76,o),
(72,132,c),
(44,132,l),
(44,59,o),
(103,0,o),
(179,0,cs)
);
},
{
closed = 1;
nodes = (
(72,132,l),
(72,984,l),
(44,984,l),
(44,132,l)
);
},
{
closed = 1;
nodes = (
(311,132,l),
(311,984,l),
(283,984,l),
(283,132,l)
);
},
{
closed = 1;
nodes = (
(311,-104,l),
(311,-31,o),
(252,28,o),
(179,28,c),
(179,0,l),
(235,0,o),
(283,-48,o),
(283,-104,c)
);
}
);
width = 355;
}
);
unicode = 1094;
},
{
glyphname = "sha-cy";
lastChange = "2024-04-18 09:29:42 +0000";
layers = (
{
hints = (
{
name = _corner.serif;
options = 1;
origin = (2,2);
scale = (-1,1);
type = Corner;
},
{
name = _corner.serif;
origin = (4,1);
type = Corner;
}
);
layerId = m01;
shapes = (
{
closed = 1;
nodes = (
(491,0,o),
(550,59,o),
(550,132,c),
(522,132,l),
(522,76,o),
(474,28,o),
(418,28,cs),
(359,28,o),
(311,76,o),
(311,132,c),
(283,132,l),
(283,59,o),
(342,0,o),
(418,0,cs)
);
},
{
closed = 1;
nodes = (
(252,0,o),
(311,59,o),
(311,132,c),
(283,132,l),
(283,76,o),
(235,28,o),
(179,28,cs),
(120,28,o),
(72,76,o),
(72,132,c),
(44,132,l),
(44,59,o),
(103,0,o),
(179,0,cs)
);
},
{
closed = 1;
nodes = (
(72,132,l),
(72,984,l),
(44,984,l),
(44,132,l)
);
},
{
closed = 1;
nodes = (
(311,132,l),
(311,984,l),
(283,984,l),
(283,132,l)
);
},
{
closed = 1;
nodes = (
(550,132,l),
(550,984,l),
(522,984,l),
(522,132,l)
);
}
);
width = 594;
}
);
unicode = 1096;
},
{
glyphname = "shcha-cy";
lastChange = "2024-04-18 10:07:00 +0000";
layers = (
{
hints = (
{
name = _corner.serif;
options = 1;
origin = (2,2);
scale = (-1,1);
type = Corner;
},
{
name = _corner.serif;
origin = (4,1);
type = Corner;
}
);
layerId = m01;
shapes = (
{
closed = 1;
nodes = (
(491,0,o),
(550,59,o),
(550,132,c),
(522,132,l),
(522,76,o),
(474,28,o),
(418,28,cs),
(359,28,o),
(311,76,o),
(311,132,c),
(283,132,l),
(283,59,o),
(342,0,o),
(418,0,cs)
);
},
{
closed = 1;
nodes = (
(252,0,o),
(311,59,o),
(311,132,c),
(283,132,l),
(283,76,o),
(235,28,o),
(179,28,cs),
(120,28,o),
(72,76,o),
(72,132,c),
(44,132,l),
(44,59,o),
(103,0,o),
(179,0,cs)
);
},
{
closed = 1;
nodes = (
(72,132,l),
(72,984,l),
(44,984,l),
(44,132,l)
);
},
{
closed = 1;
nodes = (
(311,132,l),
(311,984,l),
(283,984,l),
(283,132,l)
);
},
{
closed = 1;
nodes = (
(550,132,l),
(550,984,l),
(522,984,l),
(522,132,l)
);
},
{
closed = 1;
nodes = (
(550,-104,l),
(550,-31,o),
(491,28,o),
(418,28,c),
(418,0,l),
(474,0,o),
(522,-48,o),
(522,-104,c)
);
}
);
width = 594;
}
);
unicode = 1097;
userData = {
KernOnName = "shcha-cy";
};
},
{
glyphname = "softsign-cy";
lastChange = "2024-04-18 09:29:42 +0000";
layers = (
{
anchors = (
{
name = bottom;
pos = (179,-84);
}
);
hints = (
{
name = _corner.serif;
options = 1;
origin = (1,3);
scale = (-1,1);
type = Corner;
}
);
layerId = m01;
shapes = (
{
closed = 1;
nodes = (
(44,59,o),
(103,0,o),
(179,0,cs),
(252,0,o),
(311,59,o),
(311,132,c),
(283,132,l),
(283,76,o),
(235,28,o),
(179,28,cs),
(120,28,o),
(72,76,o),
(72,132,c),
(44,132,l)
);
},
{
closed = 1;
nodes = (
(44,132,l),
(72,132,l),
(72,984,l),
(44,984,l)
);
},
{
closed = 1;
nodes = (
(179,132,l),
(311,132,l),
(311,160,l),
(179,160,l)
);
}
);
width = 341;
}
);
unicode = 1100;
},
{
glyphname = "yeru-cy";
lastChange = "2024-04-18 09:29:42 +0000";
layers = (
{
hints = (
{
name = _corner.serif;
options = 1;
origin = (1,3);
scale = (-1,1);
type = Corner;
},
{
name = _corner.serif;
options = 1;
origin = (3,1);
scale = (-1,1);
type = Corner;
},
{
name = _corner.serif;
options = 2;
origin = (3,2);
type = Corner;
}
);
layerId = m01;
shapes = (
{
closed = 1;
nodes = (
(44,59,o),
(103,0,o),
(179,0,cs),
(252,0,o),
(311,59,o),
(311,132,c),
(283,132,l),
(283,76,o),
(235,28,o),
(179,28,cs),
(120,28,o),
(72,76,o),
(72,132,c),
(44,132,l)
);
},
{
closed = 1;
nodes = (
(44,132,l),
(72,132,l),
(72,984,l),
(44,984,l)
);
},
{
closed = 1;
nodes = (
(179,132,l),
(311,132,l),
(311,160,l),
(179,160,l)
);
},
{
closed = 1;
nodes = (
(410,0,l),
(438,0,l),
(438,984,l),
(410,984,l)
);
}
);
width = 482;
}
);
unicode = 1099;
},
{
glyphname = "hardsign-cy";
lastChange = "2024-04-18 09:29:42 +0000";
layers = (
{
layerId = m01;
shapes = (
{
closed = 1;
nodes = (
(134,59,o),
(193,0,o),
(269,0,cs),
(342,0,o),
(401,59,o),
(401,132,c),
(373,132,l),
(373,76,o),
(325,28,o),
(269,28,cs),
(210,28,o),
(162,76,o),
(162,132,c),
(134,132,l)
);
},
{
closed = 1;
nodes = (
(134,132,l),
(162,132,l),
(162,851,l),
(134,851,l)
);
},
{
closed = 1;
nodes = (
(269,132,l),
(401,132,l),
(401,160,l),
(269,160,l)
);
},
{
closed = 1;
nodes = (
(162,851,l),
(162,924,o),
(103,984,o),
(30,984,c),
(30,955,l),
(86,955,o),
(134,908,o),
(134,851,c)
);
}
);
width = 431;
}
);
unicode = 1098;
},
{
glyphname = "ereversed-cy";
lastChange = "2024-04-18 09:29:42 +0000";
layers = (
{
layerId = m01;
shapes = (
{
closed = 1;
nodes = (
(297,924,o),
(238,984,o),
(162,984,cs),
(89,984,o),
(30,924,o),
(30,851,c),
(58,851,l),
(58,908,o),
(106,955,o),
(162,955,cs),
(221,955,o),
(269,908,o),
(269,851,c),
(297,851,l)
);
},
{
closed = 1;
nodes = (
(238,0,o),
(297,59,o),
(297,132,c),
(269,132,l),
(269,76,o),
(221,28,o),
(162,28,c),
(162,0,l)
);
},
{
closed = 1;
nodes = (
(297,851,l),
(269,851,l),
(269,132,l),
(297,132,l)
);
},
{
closed = 1;
nodes = (
(162,160,l),
(162,132,l),
(286,132,l),
(286,160,l)
);
}
);
width = 327;
}
);
unicode = 1101;
},
{
glyphname = "yu-cy";
lastChange = "2024-04-18 09:29:42 +0000";
layers = (
{
hints = (
{
name = _corner.serif;
options = 1;
origin = (0,2);
scale = (-1,1);
type = Corner;
},
{
name = _corner.serif;
options = 2;
origin = (0,3);
type = Corner;
}
);
layerId = m01;
shapes = (
{
closed = 1;
nodes = (
(72,0,l),
(72,984,l),
(44,984,l),
(44,0,l)
);
},
{
closed = 1;
nodes = (
(311,851,l),
(311,908,o),
(359,955,o),
(418,955,cs),
(474,955,o),
(522,908,o),
(522,851,c),
(550,851,l),
(550,924,o),
(491,984,o),
(418,984,cs),
(342,984,o),
(283,924,o),
(283,851,c)
);
},
{
closed = 1;
nodes = (
(491,0,o),
(550,59,o),
(550,132,c),
(522,132,l),
(522,76,o),
(474,28,o),
(418,28,cs),
(359,28,o),
(311,76,o),
(311,132,c),
(283,132,l),
(283,59,o),
(342,0,o),
(418,0,cs)
);
},
{
closed = 1;
nodes = (
(311,132,l),
(311,851,l),
(283,851,l),
(283,132,l)
);
},
{
closed = 1;
nodes = (
(550,132,l),
(550,851,l),
(522,851,l),
(522,132,l)
);
},
{
closed = 1;
nodes = (
(252,104,o),
(311,163,o),
(311,236,c),
(283,236,l),
(283,180,o),
(235,132,o),
(179,132,cs),
(120,132,o),
(72,180,o),
(72,236,c),
(44,236,l),
(44,163,o),
(103,104,o),
(179,104,cs)
);
}
);
width = 580;
}
);
unicode = 1102;
},
{
glyphname = "ya-cy";
lastChange = "2024-04-18 09:29:42 +0000";
layers = (
{
hints = (
{
name = _corner.serif;
options = 1;
origin = (0,16);
scale = (-1,1);
type = Corner;
}
);
layerId = m01;
shapes = (
{
closed = 1;
nodes = (
(61,0,l),
(61,59,o),
(109,107,o),
(165,107,c),
(165,135,l),
(106,135,o),
(58,183,o),
(58,239,cs),
(58,851,ls),
(58,908,o),
(106,955,o),
(165,955,cs),
(221,955,o),
(269,908,o),
(269,851,cs),
(269,0,l),
(297,0,l),
(297,851,ls),
(297,924,o),
(238,984,o),
(165,984,cs),
(89,984,o),
(30,924,o),
(30,851,cs),
(30,239,ls),
(30,185,o),
(61,141,o),
(106,121,c),
(61,98,o),
(33,53,o),
(33,0,c)
);
}
);
width = 341;
}
);
unicode = 1103;
},
{
glyphname = zero;
kernLeft = "20";
kernRight = "20";
lastChange = "2024-04-18 09:29:42 +0000";
layers = (
{
layerId = m01;
shapes = (
{
closed = 1;
nodes = (
(58,1329,l),
(58,1385,o),
(106,1433,o),
(165,1433,cs),
(221,1433,o),
(269,1385,o),
(269,1329,c),
(297,1329,l),
(297,1402,o),
(238,1461,o),
(165,1461,cs),
(89,1461,o),
(30,1402,o),
(30,1329,c)
);
},
{
closed = 1;
nodes = (
(238,0,o),
(297,59,o),
(297,132,c),
(269,132,l),
(269,76,o),
(221,28,o),
(165,28,cs),
(106,28,o),
(58,76,o),
(58,132,c),
(30,132,l),
(30,59,o),
(89,0,o),
(165,0,cs)
);
},
{
closed = 1;
nodes = (
(58,132,l),
(58,1329,l),
(30,1329,l),
(30,132,l)
);
},
{
closed = 1;
nodes = (
(297,132,l),
(297,1329,l),
(269,1329,l),
(269,132,l)
);
}
);
width = 327;
}
);
unicode = 48;
},
{
glyphname = one;
kernLeft = "20";
kernRight = "20";
lastChange = "2024-04-18 09:29:42 +0000";
layers = (
{
hints = (
{
name = _corner.serif;
options = 1;
origin = (1,0);
scale = (-1,1);
type = Corner;
}
);
layerId = m01;
shapes = (
{
closed = 1;
nodes = (
(30,1433,l),
(86,1433,o),
(134,1385,o),
(134,1329,c),
(162,1329,l),
(162,1402,o),
(103,1461,o),
(30,1461,c)
);
},
{
closed = 1;
nodes = (
(162,0,l),
(162,1329,l),
(134,1329,l),
(134,0,l)
);
}
);
width = 206;
}
);
unicode = 49;
},
{
glyphname = two;
kernLeft = "20";
kernRight = "20";
lastChange = "2024-04-18 09:29:42 +0000";
layers = (
{
layerId = m01;
shapes = (
{
closed = 1;
nodes = (
(58,1329,l),
(58,1385,o),
(106,1433,o),
(165,1433,cs),
(221,1433,o),
(269,1385,o),
(269,1329,c),
(297,1329,l),
(297,1402,o),
(238,1461,o),
(165,1461,cs),
(89,1461,o),
(30,1402,o),
(30,1329,c)
);
},
{
closed = 1;
nodes = (
(297,0,l),
(297,28,l),
(33,28,l),
(33,0,l)
);
},
{
closed = 1;
nodes = (
(61,28,l),
(61,84,o),
(109,132,o),
(165,132,c),
(165,160,l),
(92,160,o),
(33,101,o),
(33,28,c)
);
},
{
closed = 1;
nodes = (
(238,132,o),
(297,191,o),
(297,264,c),
(269,264,l),
(269,208,o),
(221,160,o),
(165,160,c),
(165,132,l)
);
},
{
closed = 1;
nodes = (
(297,264,l),
(297,1329,l),
(269,1329,l),
(269,264,l)
);
}
);
width = 327;
}
);
unicode = 50;
},
{
glyphname = three;
kernLeft = "20";
kernRight = "20";
lastChange = "2024-04-18 09:29:42 +0000";
layers = (
{
layerId = m01;
shapes = (
{
closed = 1;
nodes = (
(58,1329,l),
(58,1385,o),
(106,1433,o),
(165,1433,cs),
(221,1433,o),
(269,1385,o),
(269,1329,c),
(297,1329,l),
(297,1402,o),
(238,1461,o),
(165,1461,cs),
(89,1461,o),
(30,1402,o),
(30,1329,c)
);
},
{
closed = 1;
nodes = (
(297,132,l),
(297,1093,l),
(269,1093,l),
(269,132,l)
);
},
{
closed = 1;
nodes = (
(297,1093,l),
(297,1166,o),
(238,1225,o),
(165,1225,c),
(165,1197,l),
(221,1197,o),
(269,1149,o),
(269,1093,c)
);
},
{
closed = 1;
nodes = (
(238,1197,o),
(297,1256,o),
(297,1329,c),
(269,1329,l),
(269,1273,o),
(221,1225,o),
(165,1225,c),
(165,1197,l)
);
},
{
closed = 1;
nodes = (
(238,0,o),
(297,59,o),
(297,132,c),
(269,132,l),
(269,76,o),
(221,28,o),
(165,28,cs),
(106,28,o),
(58,76,o),
(58,132,c),
(30,132,l),
(30,59,o),
(89,0,o),
(165,0,cs)
);
}
);
width = 327;
}
);
unicode = 51;
},
{
glyphname = four;
kernLeft = "20";
kernRight = "20";
lastChange = "2024-04-18 09:29:42 +0000";
layers = (
{
hints = (
{
name = _corner.serif;
options = 1;
origin = (2,0);
scale = (-1,1);
type = Corner;
}
);
layerId = m01;
shapes = (
{
closed = 1;
nodes = (
(238,562,o),
(297,621,o),
(297,694,c),
(269,694,l),
(269,638,o),
(221,590,o),
(165,590,cs),
(106,590,o),
(58,638,o),
(58,694,c),
(30,694,l),
(30,621,o),
(89,562,o),
(165,562,cs)
);
},
{
closed = 1;
nodes = (
(58,694,l),
(58,1461,l),
(30,1461,l),
(30,694,l)
);
},
{
closed = 1;
nodes = (
(297,0,l),
(297,1461,l),
(269,1461,l),
(269,0,l)
);
}
);
width = 341;
}
);
unicode = 52;
},
{
glyphname = five;
kernLeft = "20";
kernRight = "20";
lastChange = "2024-04-18 09:29:42 +0000";
layers = (
{
layerId = m01;
shapes = (
{
closed = 1;
nodes = (
(235,0,o),
(294,59,o),
(294,132,cs),
(294,1197,ls),
(294,1270,o),
(235,1329,o),
(162,1329,cs),
(120,1329,o),
(84,1309,o),
(58,1279,c),
(58,1433,l),
(266,1433,l),
(266,1461,l),
(30,1461,l),
(30,1197,l),
(58,1197,l),
(58,1253,o),
(106,1301,o),
(162,1301,cs),
(218,1301,o),
(266,1253,o),
(266,1197,cs),
(266,132,ls),
(266,76,o),
(218,28,o),
(162,28,cs),
(134,28,o),
(109,39,o),
(89,59,c),
(70,39,l),
(92,14,o),
(126,0,o),
(162,0,cs)
);
}
);
width = 324;
}
);
unicode = 53;
},
{
glyphname = six;
kernLeft = "20";
kernRight = "20";
lastChange = "2024-04-18 09:29:42 +0000";
layers = (
{
layerId = m01;
shapes = (
{
closed = 1;
nodes = (
(58,132,l),
(58,188,o),
(106,236,o),
(162,236,cs),
(221,236,o),
(269,188,o),
(269,132,c),
(297,132,l),
(297,205,o),
(238,264,o),
(162,264,cs),
(89,264,o),
(30,205,o),
(30,132,c)
);
},
{
closed = 1;
nodes = (
(238,0,o),
(297,59,o),
(297,132,c),
(269,132,l),
(269,76,o),
(221,28,o),
(162,28,cs),
(106,28,o),
(58,76,o),
(58,132,c),
(30,132,l),
(30,59,o),
(89,0,o),
(162,0,cs)
);
},
{
closed = 1;
nodes = (
(58,132,l),
(58,1329,l),
(30,1329,l),
(30,132,l)
);
},
{
closed = 1;
nodes = (
(58,1329,l),
(58,1385,o),
(106,1433,o),
(162,1433,c),
(162,1461,l),
(89,1461,o),
(30,1402,o),
(30,1329,c)
);
}
);
width = 327;
}
);
unicode = 54;
},
{
glyphname = seven;
kernLeft = "20";
kernRight = "20";
lastChange = "2024-04-18 09:29:42 +0000";
layers = (
{
hints = (
{
name = _corner.serif;
options = 1;
origin = (3,2);
scale = (-1,1);
type = Corner;
}
);
layerId = m01;
shapes = (
{
closed = 1;
nodes = (
(30,1461,l),
(30,1433,l),
(294,1433,l),
(294,1461,l)
);
},
{
closed = 1;
nodes = (
(266,1433,l),
(266,1377,o),
(218,1329,o),
(162,1329,c),
(162,1301,l),
(235,1301,o),
(294,1360,o),
(294,1433,c)
);
},
{
closed = 1;
nodes = (
(89,1329,o),
(30,1270,o),
(30,1197,c),
(58,1197,l),
(58,1253,o),
(106,1301,o),
(162,1301,c),
(162,1329,l)
);
},
{
closed = 1;
nodes = (
(30,1197,l),
(30,0,l),
(58,0,l),
(58,1197,l)
);
}
);
width = 324;
}
);
unicode = 55;
},
{
glyphname = eight;
kernLeft = "20";
kernRight = "20";
lastChange = "2024-04-18 09:29:42 +0000";
layers = (
{
layerId = m01;
shapes = (
{
closed = 1;
nodes = (
(238,0,o),
(297,59,o),
(297,132,cs),
(297,1093,ls),
(297,1144,o),
(266,1189,o),
(224,1211,c),
(266,1234,o),
(297,1279,o),
(297,1329,cs),
(297,1402,o),
(238,1461,o),
(165,1461,cs),
(89,1461,o),
(30,1402,o),
(30,1329,cs),
(30,1279,o),
(61,1234,o),
(103,1211,c),
(61,1189,o),
(30,1144,o),
(30,1093,cs),
(30,132,ls),
(30,59,o),
(89,0,o),
(165,0,cs)
);
},
{
closed = 1;
nodes = (
(106,28,o),
(58,76,o),
(58,132,cs),
(58,1093,ls),
(58,1149,o),
(106,1197,o),
(165,1197,cs),
(221,1197,o),
(269,1149,o),
(269,1093,cs),
(269,132,ls),
(269,76,o),
(221,28,o),
(165,28,cs)
);
},
{
closed = 1;
nodes = (
(106,1225,o),
(58,1273,o),
(58,1329,cs),
(58,1385,o),
(106,1433,o),
(165,1433,cs),
(221,1433,o),
(269,1385,o),
(269,1329,cs),
(269,1273,o),
(221,1225,o),
(165,1225,cs)
);
}
);
width = 327;
}
);
unicode = 56;
},
{
glyphname = nine;
kernLeft = "20";
kernRight = "20";
lastChange = "2024-04-18 09:29:42 +0000";
layers = (
{
layerId = m01;
shapes = (
{
closed = 1;
nodes = (
(58,1329,l),
(58,1385,o),
(106,1433,o),
(165,1433,cs),
(221,1433,o),
(269,1385,o),
(269,1329,c),
(297,1329,l),
(297,1402,o),
(238,1461,o),
(165,1461,cs),
(89,1461,o),
(30,1402,o),
(30,1329,c)
);
},
{
closed = 1;
nodes = (
(238,0,o),
(297,59,o),
(297,132,c),
(269,132,l),
(269,76,o),
(221,28,o),
(165,28,c),
(165,0,l)
);
},
{
closed = 1;
nodes = (
(297,132,l),
(297,1329,l),
(269,1329,l),
(269,132,l)
);
},
{
closed = 1;
nodes = (
(238,1197,o),
(297,1256,o),
(297,1329,c),
(269,1329,l),
(269,1273,o),
(221,1225,o),
(165,1225,cs),
(106,1225,o),
(58,1273,o),
(58,1329,c),
(30,1329,l),
(30,1256,o),
(89,1197,o),
(165,1197,cs)
);
}
);
width = 327;
}
);
unicode = 57;
},
{
glyphname = onesuperior;
kernLeft = "20";
kernRight = "20";
lastChange = "2024-04-18 09:43:17 +0000";
layers = (
{
layerId = m01;
shapes = (
{
closed = 1;
nodes = (
(30,1734,l),
(86,1734,o),
(134,1686,o),
(134,1630,c),
(162,1630,l),
(162,1703,o),
(103,1762,o),
(30,1762,c)
);
},
{
closed = 1;
nodes = (
(162,1161,l),
(162,1630,l),
(134,1630,l),
(134,1161,l)
);
}
);
width = 192;
}
);
unicode = 185;
userData = {
KernOnSpecialSpacing = {
L = superiors;
R = superiors;
};
};
},
{
glyphname = twosuperior;
kernLeft = "20";
kernRight = "20";
lastChange = "2024-04-18 09:43:17 +0000";
layers = (
{
layerId = m01;
shapes = (
{
closed = 1;
nodes = (
(58,1630,l),
(58,1686,o),
(106,1734,o),
(165,1734,cs),
(221,1734,o),
(269,1686,o),
(269,1630,c),
(297,1630,l),
(297,1703,o),
(238,1762,o),
(165,1762,cs),
(89,1762,o),
(30,1703,o),
(30,1630,c)
);
},
{
closed = 1;
nodes = (
(297,1161,l),
(297,1189,l),
(33,1189,l),
(33,1161,l)
);
},
{
closed = 1;
nodes = (
(61,1189,l),
(61,1245,o),
(109,1293,o),
(165,1293,c),
(165,1321,l),
(92,1321,o),
(33,1262,o),
(33,1189,c)
);
},
{
closed = 1;
nodes = (
(238,1293,o),
(297,1352,o),
(297,1425,c),
(269,1425,l),
(269,1368,o),
(221,1321,o),
(165,1321,c),
(165,1293,l)
);
},
{
closed = 1;
nodes = (
(297,1425,l),
(297,1630,l),
(269,1630,l),
(269,1425,l)
);
}
);
width = 327;
}
);
unicode = 178;
userData = {
KernOnSpecialSpacing = {
L = superiors;
R = superiors;
};
};
},
{
glyphname = threesuperior;
kernLeft = "20";
kernRight = "20";
lastChange = "2024-04-18 09:43:17 +0000";
layers = (
{
layerId = m01;
shapes = (
{
closed = 1;
nodes = (
(58,1630,l),
(58,1686,o),
(106,1734,o),
(165,1734,cs),
(221,1734,o),
(269,1686,o),
(269,1630,c),
(297,1630,l),
(297,1703,o),
(238,1762,o),
(165,1762,cs),
(89,1762,o),
(30,1703,o),
(30,1630,c)
);
},
{
closed = 1;
nodes = (
(297,1293,l),
(297,1394,l),
(269,1394,l),
(269,1293,l)
);
},
{
closed = 1;
nodes = (
(297,1394,l),
(297,1467,o),
(238,1526,o),
(165,1526,c),
(165,1498,l),
(221,1498,o),
(269,1450,o),
(269,1394,c)
);
},
{
closed = 1;
nodes = (
(238,1498,o),
(297,1557,o),
(297,1630,c),
(269,1630,l),
(269,1574,o),
(221,1526,o),
(165,1526,c),
(165,1498,l)
);
},
{
closed = 1;
nodes = (
(238,1161,o),
(297,1220,o),
(297,1293,c),
(269,1293,l),
(269,1236,o),
(221,1189,o),
(165,1189,cs),
(106,1189,o),
(58,1236,o),
(58,1293,c),
(30,1293,l),
(30,1220,o),
(89,1161,o),
(165,1161,cs)
);
}
);
width = 327;
}
);
unicode = 179;
userData = {
KernOnSpecialSpacing = {
L = superiors;
R = superiors;
};
};
},
{
glyphname = .notdef;
lastChange = "2024-04-18 09:29:42 +0000";
layers = (
{
layerId = m01;
shapes = (
{
closed = 1;
nodes = (
(218,610,o),
(275,663,o),
(275,731,cs),
(275,798,o),
(218,851,o),
(151,851,cs),
(84,851,o),
(30,798,o),
(30,731,cs),
(30,663,o),
(84,610,o),
(151,610,cs)
);
},
{
closed = 1;
nodes = (
(109,655,o),
(75,688,o),
(75,731,cs),
(75,773,o),
(109,806,o),
(151,806,cs),
(193,806,o),
(230,773,o),
(230,731,cs),
(230,688,o),
(193,655,o),
(151,655,cs)
);
},
{
closed = 1;
nodes = (
(387,610,o),
(407,618,o),
(421,632,c),
(390,663,l),
(384,658,o),
(373,655,o),
(365,655,cs),
(345,655,o),
(325,672,o),
(325,691,cs),
(325,711,o),
(345,728,o),
(365,728,cs),
(373,728,o),
(384,725,o),
(390,719,c),
(421,750,l),
(407,764,o),
(387,773,o),
(365,773,cs),
(320,773,o),
(280,736,o),
(280,691,cs),
(280,646,o),
(320,610,o),
(365,610,cs)
);
},
{
closed = 1;
nodes = (
(483,610,l),
(483,691,ls),
(483,711,o),
(499,728,o),
(522,728,cs),
(542,728,o),
(558,711,o),
(558,691,cs),
(558,610,l),
(603,610,l),
(603,691,ls),
(603,736,o),
(564,773,o),
(522,773,cs),
(505,773,o),
(494,770,o),
(483,764,c),
(483,851,l),
(438,851,l),
(438,610,l)
);
},
{
closed = 1;
nodes = (
(696,655,l),
(677,655,o),
(660,672,o),
(660,691,cs),
(660,711,o),
(677,728,o),
(696,728,cs),
(716,728,o),
(736,711,o),
(736,691,cs),
(736,610,l),
(780,610,l),
(780,691,ls),
(780,736,o),
(741,773,o),
(696,773,cs),
(651,773,o),
(615,736,o),
(615,691,cs),
(615,646,o),
(651,610,o),
(696,610,c)
);
},
{
closed = 1;
nodes = (
(842,610,l),
(842,641,l),
(851,632,o),
(865,632,o),
(879,632,cs),
(887,632,o),
(896,632,o),
(904,635,c),
(913,629,o),
(915,618,o),
(915,610,c),
(960,610,l),
(960,629,o),
(955,646,o),
(941,660,c),
(955,677,o),
(960,694,o),
(960,714,cs),
(960,773,l),
(915,773,l),
(915,714,ls),
(915,694,o),
(898,677,o),
(879,677,cs),
(859,677,o),
(842,694,o),
(842,714,cs),
(842,851,l),
(797,851,l),
(797,610,l)
);
},
{
closed = 1;
nodes = (
(1098,610,o),
(1135,646,o),
(1135,691,cs),
(1135,736,o),
(1098,773,o),
(1053,773,cs),
(1008,773,o),
(972,736,o),
(972,691,cs),
(972,646,o),
(1008,610,o),
(1053,610,cs)
);
},
{
closed = 1;
nodes = (
(1033,655,o),
(1017,672,o),
(1017,691,cs),
(1017,711,o),
(1033,728,o),
(1053,728,cs),
(1073,728,o),
(1090,711,o),
(1090,691,cs),
(1090,672,o),
(1073,655,o),
(1053,655,cs)
);
},
{
closed = 1;
nodes = (
(1222,610,o),
(1233,610,o),
(1241,613,c),
(1295,773,l),
(1250,773,l),
(1213,663,l),
(1174,773,l),
(1132,773,l),
(1185,613,l),
(1194,610,o),
(1202,610,o),
(1213,610,cs)
);
}
);
width = 1325;
}
);
},
{
glyphname = period;
kernLeft = "20";
kernRight = "20";
lastChange = "2024-04-18 09:43:17 +0000";
layers = (
{
layerId = m01;
shapes = (
{
closed = 1;
nodes = (
(58,0,l),
(58,28,l),
(30,28,l),
(30,0,l)
);
}
);
width = 88;
}
);
unicode = 46;
userData = {
KernOnSpecialSpacing = {
L = period;
R = period;
};
};
},
{
glyphname = comma;
kernLeft = "20";
kernRight = "20";
lastChange = "2024-04-18 09:43:17 +0000";
layers = (
{
layerId = m01;
shapes = (
{
closed = 1;
nodes = (
(75,-73,o),
(92,-37,o),
(92,0,cs),
(92,28,l),
(64,28,l),
(64,0,ls),
(64,-28,o),
(50,-56,o),
(30,-76,c),
(50,-96,l)
);
}
);
width = 122;
}
);
unicode = 44;
userData = {
KernOnSpecialSpacing = {
L = period;
R = period;
};
};
},
{
glyphname = colon;
kernLeft = "20";
kernRight = "20";
lastChange = "2024-04-18 09:43:17 +0000";
layers = (
{
layerId = m01;
shapes = (
{
closed = 1;
nodes = (
(58,835,l),
(58,863,l),
(30,863,l),
(30,835,l)
);
},
{
closed = 1;
nodes = (
(58,0,l),
(58,28,l),
(30,28,l),
(30,0,l)
);
}
);
width = 88;
}
);
unicode = 58;
userData = {
KernOnSpecialSpacing = {
L = "spaced-off";
R = "spaced-off";
};
};
},
{
glyphname = semicolon;
kernLeft = "20";
kernRight = "20";
lastChange = "2024-04-18 09:43:17 +0000";
layers = (
{
layerId = m01;
shapes = (
{
closed = 1;
nodes = (
(75,-73,o),
(92,-37,o),
(92,0,cs),
(92,28,l),
(64,28,l),
(64,0,ls),
(64,-28,o),
(50,-56,o),
(30,-76,c),
(50,-96,l)
);
},
{
closed = 1;
nodes = (
(92,835,l),
(92,863,l),
(64,863,l),
(64,835,l)
);
}
);
width = 122;
}
);
unicode = 59;
userData = {
KernOnSpecialSpacing = {
L = "spaced-off";
R = "spaced-off";
};
};
},
{
glyphname = ellipsis;
kernLeft = "20";
kernRight = "20";
lastChange = "2024-04-18 09:29:42 +0000";
layers = (
{
layerId = m01;
shapes = (
{
closed = 1;
nodes = (
(283,0,l),
(283,28,l),
(255,28,l),
(255,0,l)
);
},
{
closed = 1;
nodes = (
(58,0,l),
(58,28,l),
(30,28,l),
(30,0,l)
);
},
{
closed = 1;
nodes = (
(171,0,l),
(171,28,l),
(143,28,l),
(143,0,l)
);
}
);
width = 313;
}
);
unicode = 8230;
},
{
glyphname = exclam;
kernLeft = "20";
kernRight = "20";
lastChange = "2024-04-18 09:43:17 +0000";
layers = (
{
layerId = m01;
shapes = (
{
closed = 1;
nodes = (
(58,169,l),
(58,1461,l),
(30,1461,l),
(30,169,l)
);
},
{
closed = 1;
nodes = (
(58,0,l),
(58,28,l),
(30,28,l),
(30,0,l)
);
}
);
width = 88;
}
);
unicode = 33;
userData = {
KernOnSpecialSpacing = {
L = "spaced-off";
};
};
},
{
glyphname = exclamdown;
kernLeft = "20";
kernRight = "20";
lastChange = "2024-04-18 09:43:17 +0000";
layers = (
{
layerId = m01;
shapes = (
{
closed = 1;
nodes = (
(58,0,l),
(58,1293,l),
(30,1293,l),
(30,0,l)
);
},
{
closed = 1;
nodes = (
(58,1433,l),
(58,1461,l),
(30,1461,l),
(30,1433,l)
);
}
);
width = 88;
}
);
unicode = 161;
userData = {
KernOnSpecialSpacing = {
R = "spaced-off";
};
};
},
{
glyphname = question;
kernLeft = "20";
kernRight = "20";
lastChange = "2024-04-18 09:43:17 +0000";
layers = (
{
layerId = m01;
shapes = (
{
closed = 1;
nodes = (
(58,1329,l),
(58,1385,o),
(106,1433,o),
(165,1433,cs),
(221,1433,o),
(269,1385,o),
(269,1329,c),
(297,1329,l),
(297,1402,o),
(238,1461,o),
(165,1461,cs),
(89,1461,o),
(30,1402,o),
(30,1329,c)
);
},
{
closed = 1;
nodes = (
(179,0,l),
(179,28,l),
(151,28,l),
(151,0,l)
);
},
{
closed = 1;
nodes = (
(179,169,l),
(179,506,l),
(151,506,l),
(151,169,l)
);
},
{
closed = 1;
nodes = (
(238,478,o),
(297,537,o),
(297,610,c),
(269,610,l),
(269,554,o),
(221,506,o),
(165,506,c),
(165,478,l)
);
},
{
closed = 1;
nodes = (
(297,610,l),
(297,1329,l),
(269,1329,l),
(269,610,l)
);
}
);
width = 327;
}
);
unicode = 63;
userData = {
KernOnSpecialSpacing = {
L = "spaced-off";
};
};
},
{
glyphname = questiondown;
kernLeft = "20";
kernRight = "20";
lastChange = "2024-04-18 09:43:17 +0000";
layers = (
{
layerId = m01;
shapes = (
{
closed = 1;
nodes = (
(238,0,o),
(297,59,o),
(297,132,c),
(269,132,l),
(269,76,o),
(221,28,o),
(162,28,cs),
(106,28,o),
(58,76,o),
(58,132,c),
(30,132,l),
(30,59,o),
(89,0,o),
(162,0,cs)
);
},
{
closed = 1;
nodes = (
(58,132,l),
(58,851,l),
(30,851,l),
(30,132,l)
);
},
{
closed = 1;
nodes = (
(58,851,l),
(58,908,o),
(106,955,o),
(162,955,c),
(162,984,l),
(89,984,o),
(30,924,o),
(30,851,c)
);
},
{
closed = 1;
nodes = (
(176,955,l),
(176,1293,l),
(148,1293,l),
(148,955,l)
);
},
{
closed = 1;
nodes = (
(176,1433,l),
(176,1461,l),
(148,1461,l),
(148,1433,l)
);
}
);
width = 327;
}
);
unicode = 191;
userData = {
KernOnSpecialSpacing = {
R = "spaced-off";
};
};
},
{
glyphname = bullet;
kernLeft = "20";
kernRight = "20";
lastChange = "2024-04-18 09:43:17 +0000";
layers = (
{
layerId = m01;
shapes = (
{
closed = 1;
nodes = (
(98,450,o),
(115,466,o),
(115,492,cs),
(115,517,o),
(98,534,o),
(72,534,cs),
(47,534,o),
(30,517,o),
(30,492,cs),
(30,466,o),
(47,450,o),
(72,450,cs)
);
}
);
width = 145;
}
);
unicode = 8226;
userData = {
KernOnSpecialSpacing = {
L = NoKerning;
R = NoKerning;
};
};
},
{
glyphname = asterisk;
kernLeft = "20";
kernRight = "20";
lastChange = "2024-04-18 09:43:17 +0000";
layers = (
{
layerId = m01;
shapes = (
{
closed = 1;
nodes = (
(297,1447,l),
(297,1475,l),
(30,1475,l),
(30,1447,l)
);
},
{
closed = 1;
nodes = (
(176,1329,l),
(176,1596,l),
(148,1596,l),
(148,1329,l)
);
},
{
closed = 1;
nodes = (
(247,1357,l),
(266,1377,l),
(78,1565,l),
(58,1546,l)
);
},
{
closed = 1;
nodes = (
(78,1360,l),
(266,1548,l),
(247,1568,l),
(58,1380,l)
);
}
);
width = 327;
}
);
unicode = 42;
userData = {
KernOnSpecialSpacing = {
L = quotes;
R = quotes;
};
};
},
{
glyphname = numbersign;
kernLeft = "20";
kernRight = "20";
lastChange = "2024-04-18 09:29:42 +0000";
layers = (
{
layerId = m01;
shapes = (
{
closed = 1;
nodes = (
(221,0,l),
(710,1461,l),
(682,1461,l),
(193,0,l)
);
},
{
closed = 1;
nodes = (
(547,632,l),
(556,660,l),
(134,660,l),
(126,632,l)
);
},
{
closed = 1;
nodes = (
(58,0,l),
(547,1461,l),
(519,1461,l),
(30,0,l)
);
},
{
closed = 1;
nodes = (
(598,801,l),
(606,829,l),
(187,829,l),
(179,801,l)
);
}
);
width = 740;
}
);
unicode = 35;
},
{
glyphname = slash;
kernLeft = "20";
kernRight = "20";
lastChange = "2024-04-18 09:43:17 +0000";
layers = (
{
layerId = m01;
shapes = (
{
closed = 1;
nodes = (
(58,0,l),
(547,1461,l),
(519,1461,l),
(30,0,l)
);
}
);
width = 577;
}
);
unicode = 47;
userData = {
KernOnSpecialSpacing = {
L = slash;
R = slash;
};
};
},
{
glyphname = backslash;
kernLeft = "20";
kernRight = "20";
lastChange = "2024-04-18 09:43:17 +0000";
layers = (
{
layerId = m01;
shapes = (
{
closed = 1;
nodes = (
(547,0,l),
(58,1461,l),
(30,1461,l),
(519,0,l)
);
}
);
width = 577;
}
);
unicode = 92;
userData = {
KernOnSpecialSpacing = {
L = "spaced-off";
R = "spaced-off";
};
};
},
{
glyphname = hyphen;
kernLeft = "20";
kernRight = "20";
lastChange = "2024-04-18 09:43:17 +0000";
layers = (
{
layerId = m01;
shapes = (
{
closed = 1;
nodes = (
(171,717,l),
(171,745,l),
(30,745,l),
(30,717,l)
);
}
);
width = 201;
}
);
unicode = 45;
userData = {
KernOnSpecialSpacing = {
L = hyphen;
R = hyphen;
};
};
},
{
glyphname = endash;
kernLeft = "20";
kernRight = "20";
lastChange = "2024-04-18 09:43:17 +0000";
layers = (
{
layerId = m01;
shapes = (
{
closed = 1;
nodes = (
(297,717,l),
(297,745,l),
(30,745,l),
(30,717,l)
);
}
);
width = 327;
}
);
unicode = 8211;
userData = {
KernOnSpecialSpacing = {
L = dashes;
R = dashes;
};
};
},
{
glyphname = emdash;
kernLeft = "20";
kernRight = "20";
lastChange = "2024-04-18 09:43:17 +0000";
layers = (
{
layerId = m01;
shapes = (
{
closed = 1;
nodes = (
(480,717,l),
(480,745,l),
(30,745,l),
(30,717,l)
);
}
);
width = 510;
}
);
unicode = 8212;
userData = {
KernOnSpecialSpacing = {
L = dashes;
R = dashes;
};
};
},
{
glyphname = parenleft;
kernLeft = "20";
kernRight = "20";
lastChange = "2024-04-18 09:43:17 +0000";
layers = (
{
layerId = m01;
shapes = (
{
closed = 1;
nodes = (
(165,28,l),
(106,28,o),
(58,76,o),
(58,132,cs),
(58,1329,ls),
(58,1385,o),
(106,1433,o),
(165,1433,c),
(165,1461,l),
(89,1461,o),
(30,1402,o),
(30,1329,cs),
(30,132,ls),
(30,59,o),
(89,0,o),
(165,0,c)
);
}
);
width = 195;
}
);
unicode = 40;
userData = {
KernOnSpecialSpacing = {
R = parenthesis;
};
};
},
{
glyphname = parenright;
kernLeft = "20";
kernRight = "20";
lastChange = "2024-04-18 09:43:17 +0000";
layers = (
{
layerId = m01;
shapes = (
{
closed = 1;
nodes = (
(106,0,o),
(165,59,o),
(165,132,cs),
(165,1329,ls),
(165,1402,o),
(106,1461,o),
(30,1461,c),
(30,1433,l),
(89,1433,o),
(137,1385,o),
(137,1329,cs),
(137,132,ls),
(137,76,o),
(89,28,o),
(30,28,c),
(30,0,l)
);
}
);
width = 195;
}
);
unicode = 41;
userData = {
KernOnSpecialSpacing = {
L = parenthesis;
};
};
},
{
glyphname = braceleft;
kernLeft = "20";
kernRight = "20";
lastChange = "2024-04-18 09:43:17 +0000";
layers = (
{
layerId = m01;
shapes = (
{
closed = 1;
nodes = (
(286,28,l),
(227,28,o),
(179,76,o),
(179,132,cs),
(179,1329,ls),
(179,1385,o),
(227,1433,o),
(286,1433,c),
(286,1461,l),
(210,1461,o),
(151,1402,o),
(151,1329,cs),
(151,747,l),
(30,747,l),
(30,719,l),
(151,719,l),
(151,132,ls),
(151,59,o),
(210,0,o),
(286,0,c)
);
}
);
width = 316;
}
);
unicode = 123;
userData = {
KernOnSpecialSpacing = {
R = parenthesis;
};
};
},
{
glyphname = braceright;
kernLeft = "20";
kernRight = "20";
lastChange = "2024-04-18 09:43:17 +0000";
layers = (
{
layerId = m01;
shapes = (
{
closed = 1;
nodes = (
(106,0,o),
(165,59,o),
(165,132,cs),
(165,719,l),
(286,719,l),
(286,747,l),
(165,747,l),
(165,1329,ls),
(165,1402,o),
(106,1461,o),
(30,1461,c),
(30,1433,l),
(89,1433,o),
(137,1385,o),
(137,1329,cs),
(137,132,ls),
(137,76,o),
(89,28,o),
(30,28,c),
(30,0,l)
);
}
);
width = 316;
}
);
unicode = 125;
userData = {
KernOnSpecialSpacing = {
L = parenthesis;
};
};
},
{
glyphname = bracketleft;
kernLeft = "20";
kernRight = "20";
lastChange = "2024-04-18 09:43:17 +0000";
layers = (
{
layerId = m01;
shapes = (
{
closed = 1;
nodes = (
(58,0,l),
(58,1461,l),
(30,1461,l),
(30,0,l)
);
},
{
closed = 1;
nodes = (
(297,0,l),
(297,28,l),
(30,28,l),
(30,0,l)
);
},
{
closed = 1;
nodes = (
(297,1433,l),
(297,1461,l),
(30,1461,l),
(30,1433,l)
);
}
);
width = 327;
}
);
unicode = 91;
userData = {
KernOnSpecialSpacing = {
L = NoKerning;
R = parenthesis;
};
};
},
{
glyphname = bracketright;
kernLeft = "20";
kernRight = "20";
lastChange = "2024-04-18 09:43:17 +0000";
layers = (
{
layerId = m01;
shapes = (
{
closed = 1;
nodes = (
(297,0,l),
(297,1461,l),
(269,1461,l),
(269,0,l)
);
},
{
closed = 1;
nodes = (
(297,0,l),
(297,28,l),
(30,28,l),
(30,0,l)
);
},
{
closed = 1;
nodes = (
(297,1433,l),
(297,1461,l),
(30,1461,l),
(30,1433,l)
);
}
);
width = 327;
}
);
unicode = 93;
userData = {
KernOnSpecialSpacing = {
L = parenthesis;
R = NoKerning;
};
};
},
{
glyphname = guillemetleft;
kernLeft = "20";
kernRight = "20";
lastChange = "2024-04-18 09:43:17 +0000";
layers = (
{
layerId = m01;
shapes = (
{
closed = 1;
nodes = (
(103,478,o),
(162,537,o),
(162,610,c),
(134,610,l),
(134,554,o),
(86,506,o),
(30,506,c),
(30,478,l)
);
},
{
closed = 1;
nodes = (
(162,374,l),
(162,447,o),
(103,506,o),
(30,506,c),
(30,478,l),
(86,478,o),
(134,430,o),
(134,374,c)
);
},
{
closed = 1;
nodes = (
(221,377,l),
(221,427,o),
(202,472,o),
(168,506,c),
(143,492,l),
(174,464,o),
(193,422,o),
(193,377,c)
);
},
{
closed = 1;
nodes = (
(202,511,o),
(221,559,o),
(221,610,c),
(193,610,l),
(193,562,o),
(174,523,o),
(143,492,c),
(168,478,l)
);
}
);
width = 251;
}
);
unicode = 171;
userData = {
KernOnSpecialSpacing = {
L = quotes;
R = quotes;
};
};
},
{
glyphname = guillemetright;
kernLeft = "20";
kernRight = "20";
lastChange = "2024-04-18 09:43:17 +0000";
layers = (
{
layerId = m01;
shapes = (
{
closed = 1;
nodes = (
(221,506,l),
(165,506,o),
(117,554,o),
(117,610,c),
(89,610,l),
(89,537,o),
(148,478,o),
(221,478,c)
);
},
{
closed = 1;
nodes = (
(58,377,l),
(58,422,o),
(78,464,o),
(109,492,c),
(84,506,l),
(50,472,o),
(30,427,o),
(30,377,c)
);
},
{
closed = 1;
nodes = (
(117,374,l),
(117,430,o),
(165,478,o),
(221,478,c),
(221,506,l),
(148,506,o),
(89,447,o),
(89,374,c)
);
},
{
closed = 1;
nodes = (
(109,492,l),
(78,523,o),
(58,562,o),
(58,610,c),
(30,610,l),
(30,559,o),
(50,511,o),
(84,478,c)
);
}
);
width = 251;
}
);
unicode = 187;
userData = {
KernOnSpecialSpacing = {
L = quotes;
R = quotes;
};
};
},
{
glyphname = guilsinglleft;
kernLeft = "20";
kernRight = "20";
lastChange = "2024-04-18 09:43:17 +0000";
layers = (
{
layerId = m01;
shapes = (
{
closed = 1;
nodes = (
(103,478,o),
(162,537,o),
(162,610,c),
(134,610,l),
(134,554,o),
(86,506,o),
(30,506,c),
(30,478,l)
);
},
{
closed = 1;
nodes = (
(162,374,l),
(162,447,o),
(103,506,o),
(30,506,c),
(30,478,l),
(86,478,o),
(134,430,o),
(134,374,c)
);
}
);
width = 192;
}
);
unicode = 8249;
userData = {
KernOnSpecialSpacing = {
L = quotes;
R = quotes;
};
};
},
{
glyphname = guilsinglright;
kernLeft = "20";
kernRight = "20";
lastChange = "2024-04-18 09:43:17 +0000";
layers = (
{
layerId = m01;
shapes = (
{
closed = 1;
nodes = (
(162,506,l),
(106,506,o),
(58,554,o),
(58,610,c),
(30,610,l),
(30,537,o),
(89,478,o),
(162,478,c)
);
},
{
closed = 1;
nodes = (
(58,374,l),
(58,430,o),
(106,478,o),
(162,478,c),
(162,506,l),
(89,506,o),
(30,447,o),
(30,374,c)
);
}
);
width = 192;
}
);
unicode = 8250;
userData = {
KernOnSpecialSpacing = {
L = quotes;
R = quotes;
};
};
},
{
glyphname = quotesingle;
kernLeft = "20";
kernRight = "20";
lastChange = "2024-04-18 09:43:17 +0000";
layers = (
{
layerId = m01;
shapes = (
{
closed = 1;
nodes = (
(58,1287,l),
(58,1638,l),
(30,1638,l),
(30,1287,l)
);
}
);
width = 88;
}
);
unicode = 39;
userData = {
KernOnSpecialSpacing = {
L = quotes;
R = quotes;
};
};
},
{
glyphname = at;
kernLeft = "20";
kernRight = "20";
lastChange = "2024-04-18 09:43:17 +0000";
layers = (
{
layerId = m01;
shapes = (
{
closed = 1;
nodes = (
(58,731,l),
(58,986,o),
(266,1194,o),
(522,1194,cs),
(778,1194,o),
(986,986,o),
(986,731,c),
(1014,731,l),
(1014,1000,o),
(792,1222,o),
(522,1222,cs),
(252,1222,o),
(30,1000,o),
(30,731,c)
);
},
{
closed = 1;
nodes = (
(522,-211,l),
(266,-211,o),
(58,-3,o),
(58,253,c),
(30,253,l),
(30,-17,o),
(252,-239,o),
(522,-239,c)
);
},
{
closed = 1;
nodes = (
(58,253,l),
(58,731,l),
(30,731,l),
(30,253,l)
);
},
{
closed = 1;
nodes = (
(522,84,l),
(429,84,o),
(353,160,o),
(353,253,c),
(325,253,l),
(325,146,o),
(412,56,o),
(522,56,c)
);
},
{
closed = 1;
nodes = (
(353,253,l),
(353,731,l),
(325,731,l),
(325,253,l)
);
},
{
closed = 1;
nodes = (
(353,731,l),
(353,823,o),
(429,899,o),
(522,899,cs),
(615,899,o),
(691,823,o),
(691,731,c),
(719,731,l),
(719,837,o),
(629,927,o),
(522,927,cs),
(412,927,o),
(325,837,o),
(325,731,c)
);
},
{
closed = 1;
nodes = (
(1014,-239,l),
(1014,731,l),
(986,731,l),
(986,-239,l)
);
},
{
closed = 1;
nodes = (
(691,-239,l),
(719,-239,l),
(719,731,l),
(691,731,l)
);
}
);
width = 1044;
}
);
unicode = 64;
userData = {
KernOnSpecialSpacing = {
L = symbols;
R = symbols;
};
};
},
{
glyphname = ampersand;
kernLeft = "20";
kernRight = "20";
lastChange = "2024-04-18 09:43:17 +0000";
layers = (
{
layerId = m01;
shapes = (
{
closed = 1;
nodes = (
(30,222,o),
(252,0,o),
(522,0,cs),
(792,0,o),
(1014,222,o),
(1014,492,c),
(986,492,l),
(986,236,o),
(778,28,o),
(522,28,cs),
(266,28,o),
(58,236,o),
(58,492,c),
(30,492,l)
);
},
{
closed = 1;
nodes = (
(983,0,l),
(1014,0,l),
(896,197,l),
(876,174,l)
);
},
{
closed = 1;
nodes = (
(252,986,o),
(27,764,o),
(30,495,cs),
(30,222,o),
(252,0,o),
(522,0,c),
(522,28,l),
(266,28,o),
(58,236,o),
(58,495,cs),
(58,750,o),
(266,958,o),
(522,958,c),
(522,986,l)
);
},
{
closed = 1;
nodes = (
(660,958,o),
(772,1071,o),
(772,1211,cs),
(772,1349,o),
(660,1461,o),
(522,1461,cs),
(382,1461,o),
(269,1349,o),
(269,1211,cs),
(269,1071,o),
(382,958,o),
(522,958,cs)
);
},
{
closed = 1;
nodes = (
(398,986,o),
(297,1087,o),
(297,1211,cs),
(297,1332,o),
(398,1433,o),
(522,1433,cs),
(643,1433,o),
(744,1332,o),
(744,1211,cs),
(744,1087,o),
(643,986,o),
(522,986,cs)
);
}
);
width = 1044;
}
);
unicode = 38;
userData = {
KernOnSpecialSpacing = {
L = symbols;
R = symbols;
};
};
},
{
glyphname = section;
kernLeft = "20";
kernRight = "20";
lastChange = "2024-04-18 09:43:17 +0000";
layers = (
{
layerId = m01;
shapes = (
{
closed = 1;
nodes = (
(606,360,o),
(772,525,o),
(772,731,cs),
(772,936,o),
(606,1102,o),
(401,1102,cs),
(196,1102,o),
(30,936,o),
(30,731,cs),
(30,525,o),
(196,360,o),
(401,360,cs)
);
},
{
closed = 1;
nodes = (
(604,-104,o),
(767,59,o),
(767,261,cs),
(767,357,o),
(730,447,o),
(668,511,c),
(651,486,l),
(705,424,o),
(738,346,o),
(738,261,cs),
(738,79,o),
(584,-76,o),
(401,-76,cs),
(311,-76,o),
(227,-37,o),
(165,22,c),
(143,3,l),
(210,-65,o),
(300,-104,o),
(401,-104,cs)
);
},
{
closed = 1;
nodes = (
(216,388,o),
(58,545,o),
(58,731,cs),
(58,916,o),
(216,1073,o),
(401,1073,cs),
(587,1073,o),
(744,916,o),
(744,731,cs),
(744,545,o),
(587,388,o),
(401,388,cs)
);
},
{
closed = 1;
nodes = (
(148,981,l),
(95,1040,o),
(64,1116,o),
(64,1200,cs),
(64,1383,o),
(219,1537,o),
(401,1537,cs),
(491,1537,o),
(575,1498,o),
(637,1439,c),
(660,1458,l),
(592,1526,o),
(502,1565,o),
(401,1565,cs),
(199,1565,o),
(36,1402,o),
(36,1200,cs),
(36,1107,o),
(72,1020,o),
(129,955,c)
);
}
);
width = 802;
}
);
unicode = 167;
userData = {
KernOnSpecialSpacing = {
R = symbols;
};
};
},
{
glyphname = copyright;
kernLeft = "20";
kernRight = "20";
lastChange = "2024-04-18 09:43:17 +0000";
layers = (
{
layerId = m01;
shapes = (
{
closed = 1;
nodes = (
(58,731,l),
(58,986,o),
(266,1194,o),
(522,1194,cs),
(778,1194,o),
(986,986,o),
(986,731,c),
(1014,731,l),
(1014,1000,o),
(792,1222,o),
(522,1222,cs),
(252,1222,o),
(30,1000,o),
(30,731,c)
);
},
{
closed = 1;
nodes = (
(792,-239,o),
(1014,-17,o),
(1014,253,c),
(986,253,l),
(986,-3,o),
(778,-211,o),
(522,-211,cs),
(266,-211,o),
(58,-3,o),
(58,253,c),
(30,253,l),
(30,-17,o),
(252,-239,o),
(522,-239,cs)
);
},
{
closed = 1;
nodes = (
(58,253,l),
(58,731,l),
(30,731,l),
(30,253,l)
);
},
{
closed = 1;
nodes = (
(629,56,o),
(719,146,o),
(719,253,c),
(691,253,l),
(691,160,o),
(615,84,o),
(522,84,cs),
(429,84,o),
(353,160,o),
(353,253,c),
(325,253,l),
(325,146,o),
(412,56,o),
(522,56,cs)
);
},
{
closed = 1;
nodes = (
(353,253,l),
(353,731,l),
(325,731,l),
(325,253,l)
);
},
{
closed = 1;
nodes = (
(353,731,l),
(353,823,o),
(429,899,o),
(522,899,cs),
(615,899,o),
(691,823,o),
(691,731,c),
(719,731,l),
(719,837,o),
(629,927,o),
(522,927,cs),
(412,927,o),
(325,837,o),
(325,731,c)
);
},
{
closed = 1;
nodes = (
(1014,253,l),
(1014,731,l),
(986,731,l),
(986,253,l)
);
}
);
width = 1044;
}
);
unicode = 169;
userData = {
KernOnSpecialSpacing = {
R = symbols;
};
};
},
{
glyphname = registered;
kernLeft = "20";
kernRight = "20";
lastChange = "2024-04-18 09:43:17 +0000";
layers = (
{
layerId = m01;
shapes = (
{
closed = 1;
nodes = (
(446,882,o),
(564,1000,o),
(564,1146,cs),
(564,1638,ls),
(564,1784,o),
(446,1902,o),
(300,1902,cs),
(151,1902,o),
(30,1784,o),
(30,1638,cs),
(30,1146,ls),
(30,1000,o),
(151,882,o),
(300,882,cs)
);
},
{
closed = 1;
nodes = (
(430,1113,l),
(430,1186,ls),
(430,1236,o),
(399,1281,o),
(356,1304,c),
(399,1326,o),
(430,1371,o),
(430,1422,c),
(401,1422,l),
(401,1366,o),
(354,1318,o),
(297,1318,c),
(297,1290,l),
(354,1290,o),
(401,1242,o),
(401,1186,cs),
(401,1113,l)
);
},
{
closed = 1;
nodes = (
(165,910,o),
(59,1017,o),
(59,1146,cs),
(59,1638,ls),
(59,1767,o),
(165,1874,o),
(300,1874,cs),
(430,1874,o),
(536,1767,o),
(536,1638,cs),
(536,1146,ls),
(536,1017,o),
(430,910,o),
(300,910,cs)
);
},
{
closed = 1;
nodes = (
(191,1113,l),
(191,1635,ls),
(191,1692,o),
(238,1739,o),
(297,1739,cs),
(354,1739,o),
(401,1692,o),
(401,1635,cs),
(401,1422,l),
(430,1422,l),
(430,1635,ls),
(430,1708,o),
(371,1767,o),
(297,1767,cs),
(222,1767,o),
(163,1708,o),
(163,1635,cs),
(163,1113,l)
);
}
);
width = 594;
}
);
unicode = 174;
userData = {
KernOnSpecialSpacing = {
L = superiors;
};
};
},
{
glyphname = degree;
kernLeft = "20";
kernRight = "20";
lastChange = "2024-04-18 09:43:17 +0000";
layers = (
{
layerId = m01;
shapes = (
{
closed = 1;
nodes = (
(238,1158,o),
(297,1217,o),
(297,1290,cs),
(297,1635,ls),
(297,1708,o),
(238,1767,o),
(165,1767,cs),
(89,1767,o),
(30,1708,o),
(30,1635,cs),
(30,1290,ls),
(30,1217,o),
(89,1158,o),
(165,1158,cs)
);
},
{
closed = 1;
nodes = (
(106,1186,o),
(58,1234,o),
(58,1290,cs),
(58,1635,ls),
(58,1692,o),
(106,1739,o),
(165,1739,cs),
(221,1739,o),
(269,1692,o),
(269,1635,cs),
(269,1290,ls),
(269,1234,o),
(221,1186,o),
(165,1186,cs)
);
}
);
width = 327;
}
);
unicode = 176;
userData = {
KernOnSpecialSpacing = {
L = superiors;
R = superiors;
};
};
},
{
glyphname = bar;
kernLeft = "20";
kernRight = "20";
lastChange = "2024-04-18 09:43:17 +0000";
layers = (
{
layerId = m01;
shapes = (
{
closed = 1;
nodes = (
(58,-183,l),
(58,1644,l),
(30,1644,l),
(30,-183,l)
);
}
);
width = 88;
}
);
unicode = 124;
userData = {
KernOnSpecialSpacing = {
L = NoKerning;
R = NoKerning;
};
};
},
{
glyphname = dagger;
lastChange = "2024-04-18 09:29:42 +0000";
layers = (
{
layerId = m01;
shapes = (
{
closed = 1;
nodes = (
(176,745,l),
(176,1644,l),
(148,1644,l),
(148,745,l)
);
},
{
closed = 1;
nodes = (
(297,1318,l),
(297,1346,l),
(30,1346,l),
(30,1318,l)
);
}
);
width = 327;
}
);
unicode = 8224;
},
{
glyphname = cent;
kernLeft = "20";
kernRight = "20";
lastChange = "2024-04-18 09:43:17 +0000";
layers = (
{
layerId = m01;
shapes = (
{
closed = 1;
nodes = (
(58,1090,l),
(58,1146,o),
(106,1194,o),
(165,1194,cs),
(221,1194,o),
(269,1146,o),
(269,1090,c),
(297,1090,l),
(297,1163,o),
(238,1222,o),
(165,1222,cs),
(89,1222,o),
(30,1163,o),
(30,1090,c)
);
},
{
closed = 1;
nodes = (
(179,0,l),
(179,253,l),
(151,253,l),
(151,0,l)
);
},
{
closed = 1;
nodes = (
(238,239,o),
(297,298,o),
(297,371,c),
(269,371,l),
(269,315,o),
(221,267,o),
(165,267,cs),
(106,267,o),
(58,315,o),
(58,371,c),
(30,371,l),
(30,298,o),
(89,239,o),
(165,239,cs)
);
},
{
closed = 1;
nodes = (
(58,371,l),
(58,1090,l),
(30,1090,l),
(30,371,l)
);
},
{
closed = 1;
nodes = (
(179,1208,l),
(179,1461,l),
(151,1461,l),
(151,1208,l)
);
}
);
width = 327;
}
);
unicode = 162;
userData = {
KernOnSpecialSpacing = {
L = symbols;
R = symbols;
};
};
},
{
glyphname = dollar;
kernLeft = "20";
kernRight = "20";
lastChange = "2024-04-18 09:43:17 +0000";
layers = (
{
layerId = m01;
shapes = (
{
closed = 1;
nodes = (
(179,-183,l),
(179,0,l),
(247,8,o),
(297,65,o),
(297,132,cs),
(297,1093,ls),
(297,1166,o),
(238,1225,o),
(165,1225,cs),
(106,1225,o),
(58,1273,o),
(58,1329,cs),
(58,1385,o),
(106,1433,o),
(165,1433,cs),
(221,1433,o),
(269,1385,o),
(269,1329,c),
(297,1329,l),
(297,1397,o),
(247,1453,o),
(179,1461,c),
(179,1644,l),
(151,1644,l),
(151,1461,l),
(81,1453,o),
(30,1397,o),
(30,1329,cs),
(30,1256,o),
(89,1197,o),
(165,1197,cs),
(221,1197,o),
(269,1149,o),
(269,1093,cs),
(269,132,ls),
(269,76,o),
(221,28,o),
(165,28,cs),
(106,28,o),
(58,76,o),
(58,132,cs),
(58,1093,l),
(30,1093,l),
(30,132,ls),
(30,65,o),
(81,8,o),
(151,0,c),
(151,-183,l)
);
}
);
width = 327;
}
);
unicode = 36;
userData = {
KernOnSpecialSpacing = {
L = symbols;
R = symbols;
};
};
},
{
glyphname = euro;
kernLeft = "20";
kernRight = "20";
lastChange = "2024-04-18 09:43:17 +0000";
layers = (
{
layerId = m01;
shapes = (
{
closed = 1;
nodes = (
(233,576,l),
(233,604,l),
(30,604,l),
(30,576,l)
);
},
{
closed = 1;
nodes = (
(233,857,l),
(233,885,l),
(30,885,l),
(30,857,l)
);
},
{
closed = 1;
nodes = (
(117,0,l),
(117,1329,l),
(89,1329,l),
(89,0,l)
);
},
{
closed = 1;
nodes = (
(224,0,l),
(224,28,l),
(89,28,l),
(89,0,l)
);
},
{
closed = 1;
nodes = (
(297,0,o),
(356,59,o),
(356,132,c),
(328,132,l),
(328,76,o),
(280,28,o),
(224,28,c),
(224,0,l)
);
},
{
closed = 1;
nodes = (
(117,1329,l),
(117,1385,o),
(165,1433,o),
(224,1433,cs),
(280,1433,o),
(328,1385,o),
(328,1329,c),
(356,1329,l),
(356,1402,o),
(297,1461,o),
(224,1461,cs),
(148,1461,o),
(89,1402,o),
(89,1329,c)
);
}
);
width = 386;
}
);
unicode = 8364;
userData = {
KernOnSpecialSpacing = {
L = symbols;
R = symbols;
};
};
},
{
glyphname = sterling;
kernLeft = "20";
kernRight = "20";
lastChange = "2024-04-18 09:43:17 +0000";
layers = (
{
layerId = m01;
shapes = (
{
closed = 1;
nodes = (
(297,0,l),
(297,28,l),
(58,28,l),
(58,478,l),
(165,478,l),
(165,506,l),
(58,506,l),
(58,1329,ls),
(58,1385,o),
(106,1433,o),
(165,1433,cs),
(221,1433,o),
(269,1385,o),
(269,1329,c),
(297,1329,l),
(297,1402,o),
(238,1461,o),
(165,1461,cs),
(89,1461,o),
(30,1402,o),
(30,1329,cs),
(30,0,l)
);
}
);
width = 327;
}
);
unicode = 163;
userData = {
KernOnSpecialSpacing = {
L = symbols;
R = symbols;
};
};
},
{
glyphname = yen;
kernLeft = "20";
kernRight = "20";
lastChange = "2024-04-18 09:43:17 +0000";
layers = (
{
layerId = m01;
shapes = (
{
closed = 1;
nodes = (
(297,253,l),
(297,281,l),
(30,281,l),
(30,253,l)
);
},
{
closed = 1;
nodes = (
(297,464,l),
(297,492,l),
(30,492,l),
(30,464,l)
);
},
{
closed = 1;
nodes = (
(179,0,l),
(179,492,l),
(151,492,l),
(151,0,l)
);
},
{
closed = 1;
nodes = (
(238,464,o),
(297,523,o),
(297,596,c),
(269,596,l),
(269,540,o),
(221,492,o),
(165,492,cs),
(106,492,o),
(58,540,o),
(58,596,c),
(30,596,l),
(30,523,o),
(89,464,o),
(165,464,cs)
);
},
{
closed = 1;
nodes = (
(58,596,l),
(58,1461,l),
(30,1461,l),
(30,596,l)
);
},
{
closed = 1;
nodes = (
(297,596,l),
(297,1461,l),
(269,1461,l),
(269,596,l)
);
}
);
width = 327;
}
);
unicode = 165;
userData = {
KernOnSpecialSpacing = {
L = symbols;
R = symbols;
};
};
},
{
glyphname = plus;
kernLeft = "20";
kernRight = "20";
lastChange = "2024-04-18 09:43:17 +0000";
layers = (
{
layerId = m01;
shapes = (
{
closed = 1;
nodes = (
(176,599,l),
(176,865,l),
(148,865,l),
(148,599,l)
);
},
{
closed = 1;
nodes = (
(297,717,l),
(297,745,l),
(30,745,l),
(30,717,l)
);
}
);
width = 327;
}
);
unicode = 43;
userData = {
KernOnSpecialSpacing = {
L = math;
R = math;
};
};
},
{
glyphname = multiply;
kernLeft = "20";
kernRight = "20";
lastChange = "2024-04-18 09:43:17 +0000";
layers = (
{
layerId = m01;
shapes = (
{
closed = 1;
nodes = (
(238,818,l),
(218,837,l),
(30,649,l),
(50,629,l)
);
},
{
closed = 1;
nodes = (
(238,646,l),
(50,835,l),
(30,815,l),
(218,627,l)
);
}
);
width = 268;
}
);
unicode = 215;
userData = {
KernOnSpecialSpacing = {
L = math;
R = math;
};
};
},
{
glyphname = equal;
kernLeft = "20";
kernRight = "20";
lastChange = "2024-04-18 09:43:17 +0000";
layers = (
{
layerId = m01;
shapes = (
{
closed = 1;
nodes = (
(297,773,l),
(297,801,l),
(30,801,l),
(30,773,l)
);
},
{
closed = 1;
nodes = (
(297,660,l),
(297,688,l),
(30,688,l),
(30,660,l)
);
}
);
width = 327;
}
);
unicode = 61;
userData = {
KernOnSpecialSpacing = {
L = math;
R = math;
};
};
},
{
glyphname = percent;
kernLeft = "20";
kernRight = "20";
lastChange = "2024-04-18 09:43:17 +0000";
layers = (
{
layerId = m01;
shapes = (
{
closed = 1;
nodes = (
(185,0,l),
(674,1461,l),
(646,1461,l),
(157,0,l)
);
},
{
closed = 1;
nodes = (
(238,697,o),
(297,756,o),
(297,829,cs),
(297,1329,ls),
(297,1402,o),
(238,1461,o),
(165,1461,cs),
(89,1461,o),
(30,1402,o),
(30,1329,cs),
(30,829,ls),
(30,756,o),
(89,697,o),
(165,697,cs)
);
},
{
closed = 1;
nodes = (
(744,0,o),
(803,59,o),
(803,132,cs),
(803,632,ls),
(803,705,o),
(744,764,o),
(671,764,cs),
(595,764,o),
(536,705,o),
(536,632,cs),
(536,132,ls),
(536,59,o),
(595,0,o),
(671,0,cs)
);
},
{
closed = 1;
nodes = (
(106,725,o),
(58,773,o),
(58,829,cs),
(58,1329,ls),
(58,1385,o),
(106,1433,o),
(165,1433,cs),
(221,1433,o),
(269,1385,o),
(269,1329,cs),
(269,829,ls),
(269,773,o),
(221,725,o),
(165,725,cs)
);
},
{
closed = 1;
nodes = (
(612,28,o),
(564,76,o),
(564,132,cs),
(564,632,ls),
(564,688,o),
(612,736,o),
(671,736,cs),
(727,736,o),
(775,688,o),
(775,632,cs),
(775,132,ls),
(775,76,o),
(727,28,o),
(671,28,cs)
);
}
);
width = 833;
}
);
unicode = 37;
userData = {
KernOnSpecialSpacing = {
L = "spaced-off";
};
};
},
{
glyphname = dieresiscomb;
kernLeft = "20";
kernRight = "20";
lastChange = "2024-04-18 09:43:17 +0000";
layers = (
{
anchors = (
{
name = _top;
pos = (86,984);
}
);
layerId = m01;
shapes = (
{
closed = 1;
nodes = (
(137,1135,o),
(143,1141,o),
(143,1149,cs),
(143,1158,o),
(137,1163,o),
(129,1163,cs),
(120,1163,o),
(115,1158,o),
(115,1149,cs),
(115,1141,o),
(120,1135,o),
(129,1135,c)
);
},
{
closed = 1;
nodes = (
(53,1135,o),
(58,1141,o),
(58,1149,cs),
(58,1158,o),
(53,1163,o),
(44,1163,cs),
(36,1163,o),
(30,1158,o),
(30,1149,cs),
(30,1141,o),
(36,1135,o),
(44,1135,c)
);
}
);
width = 173;
}
);
unicode = 776;
userData = {
KernOnSpecialSpacing = {
L = NoKerning;
R = NoKerning;
};
};
},
{
glyphname = dotaccentcomb;
kernLeft = "20";
kernRight = "20";
lastChange = "2024-04-18 09:43:17 +0000";
layers = (
{
anchors = (
{
name = _top;
pos = (44,984);
}
);
layerId = m01;
shapes = (
{
closed = 1;
nodes = (
(53,1135,o),
(58,1141,o),
(58,1149,cs),
(58,1158,o),
(53,1163,o),
(44,1163,cs),
(36,1163,o),
(30,1158,o),
(30,1149,cs),
(30,1141,o),
(36,1135,o),
(44,1135,c)
);
}
);
width = 88;
}
);
unicode = 775;
userData = {
KernOnSpecialSpacing = {
L = NoKerning;
R = NoKerning;
};
};
},
{
glyphname = gravecomb;
kernLeft = "20";
kernRight = "20";
lastChange = "2024-04-18 09:43:17 +0000";
layers = (
{
anchors = (
{
name = _top;
pos = (109,984);
}
);
layerId = m01;
shapes = (
{
closed = 1;
nodes = (
(188,984,l),
(58,1321,l),
(30,1321,l),
(160,984,l)
);
}
);
width = 218;
}
);
unicode = 768;
userData = {
KernOnSpecialSpacing = {
L = NoKerning;
R = NoKerning;
};
};
},
{
glyphname = acutecomb;
kernLeft = "20";
kernRight = "20";
lastChange = "2024-04-18 09:43:17 +0000";
layers = (
{
anchors = (
{
name = _top;
pos = (109,984);
}
);
layerId = m01;
shapes = (
{
closed = 1;
nodes = (
(58,984,l),
(188,1321,l),
(160,1321,l),
(30,984,l)
);
}
);
width = 218;
}
);
unicode = 769;
userData = {
KernOnSpecialSpacing = {
L = NoKerning;
R = NoKerning;
};
};
},
{
glyphname = circumflexcomb;
kernLeft = "20";
kernRight = "20";
lastChange = "2024-04-18 09:43:17 +0000";
layers = (
{
anchors = (
{
name = _top;
pos = (103,984);
}
);
layerId = m01;
shapes = (
{
closed = 1;
nodes = (
(176,1132,l),
(151,1132,o),
(123,1144,o),
(103,1163,c),
(84,1144,l),
(109,1116,o),
(145,1104,o),
(176,1104,c)
);
},
{
closed = 1;
nodes = (
(61,1104,o),
(98,1116,o),
(123,1144,c),
(103,1163,l),
(84,1144,o),
(55,1132,o),
(30,1132,c),
(30,1104,l)
);
}
);
width = 206;
}
);
unicode = 770;
userData = {
KernOnSpecialSpacing = {
L = NoKerning;
R = NoKerning;
};
};
},
{
glyphname = ringcomb;
kernLeft = "20";
kernRight = "20";
lastChange = "2024-04-18 09:43:17 +0000";
layers = (
{
anchors = (
{
name = _top;
pos = (165,984);
}
);
layerId = m01;
shapes = (
{
closed = 1;
nodes = (
(238,1057,o),
(297,1116,o),
(297,1189,cs),
(297,1262,o),
(238,1321,o),
(165,1321,cs),
(89,1321,o),
(30,1262,o),
(30,1189,cs),
(30,1116,o),
(89,1057,o),
(165,1057,cs)
);
},
{
closed = 1;
nodes = (
(106,1085,o),
(58,1132,o),
(58,1189,cs),
(58,1245,o),
(106,1293,o),
(165,1293,cs),
(221,1293,o),
(269,1245,o),
(269,1189,cs),
(269,1132,o),
(221,1085,o),
(165,1085,cs)
);
}
);
width = 327;
}
);
unicode = 778;
userData = {
KernOnSpecialSpacing = {
L = NoKerning;
R = NoKerning;
};
};
},
{
glyphname = tildecomb;
kernLeft = "20";
kernRight = "20";
lastChange = "2024-04-18 09:43:17 +0000";
layers = (
{
anchors = (
{
name = _top;
pos = (210,984);
}
);
layerId = m01;
shapes = (
{
closed = 1;
nodes = (
(70,1161,o),
(98,1177,o),
(129,1180,cs),
(154,1180,o),
(179,1175,o),
(202,1158,cs),
(230,1138,o),
(263,1130,o),
(294,1135,cs),
(331,1138,o),
(365,1158,o),
(390,1189,c),
(367,1205,l),
(351,1180,o),
(322,1166,o),
(294,1163,cs),
(269,1161,o),
(241,1166,o),
(218,1183,cs),
(190,1203,o),
(159,1208,o),
(129,1205,cs),
(92,1203,o),
(55,1186,o),
(30,1152,c),
(53,1135,l)
);
}
);
width = 420;
}
);
unicode = 771;
userData = {
KernOnSpecialSpacing = {
L = NoKerning;
R = NoKerning;
};
};
},
{
glyphname = cedillacomb;
kernLeft = "20";
kernRight = "20";
lastChange = "2024-04-18 09:43:17 +0000";
layers = (
{
anchors = (
{
name = _bottom;
pos = (117,0);
}
);
layerId = m01;
shapes = (
{
closed = 1;
nodes = (
(123,-343,o),
(182,-284,o),
(182,-208,cs),
(182,-135,o),
(123,-76,o),
(50,-76,c),
(50,-104,l),
(106,-104,o),
(154,-152,o),
(154,-208,cs),
(154,-267,o),
(106,-315,o),
(50,-315,c),
(50,-343,l)
);
},
{
closed = 1;
nodes = (
(50,-343,l),
(50,-315,l),
(30,-315,l),
(30,-343,l)
);
},
{
closed = 1;
nodes = (
(58,-104,l),
(58,11,l),
(30,11,l),
(30,-104,l)
);
}
);
width = 212;
}
);
unicode = 807;
userData = {
KernOnSpecialSpacing = {
L = NoKerning;
R = NoKerning;
};
};
},
{
glyphname = hungarumlaut;
kernLeft = "20";
kernRight = "20";
lastChange = "2024-04-18 09:29:42 +0000";
layers = (
{
anchors = (
{
name = _top;
pos = (230,984);
}
);
layerId = m01;
shapes = (
{
closed = 1;
nodes = (
(300,984,l),
(429,1335,l),
(401,1335,l),
(272,984,l)
);
},
{
closed = 1;
nodes = (
(58,984,l),
(188,1335,l),
(160,1335,l),
(30,984,l)
);
}
);
width = 459;
}
);
unicode = 733;
},
{
glyphname = caron;
kernLeft = "20";
kernRight = "20";
lastChange = "2024-04-18 09:29:42 +0000";
layers = (
{
anchors = (
{
name = _top;
pos = (103,984);
}
);
layerId = m01;
shapes = (
{
closed = 1;
nodes = (
(123,1124,o),
(151,1135,o),
(176,1135,c),
(176,1163,l),
(145,1163,o),
(109,1152,o),
(84,1124,c),
(103,1104,l)
);
},
{
closed = 1;
nodes = (
(123,1124,l),
(98,1152,o),
(61,1163,o),
(30,1163,c),
(30,1135,l),
(55,1135,o),
(84,1124,o),
(103,1104,c)
);
}
);
width = 206;
}
);
unicode = 711;
},
{
glyphname = breve;
kernLeft = "20";
kernRight = "20";
lastChange = "2024-04-18 09:29:42 +0000";
layers = (
{
anchors = (
{
name = _top;
pos = (165,984);
}
);
layerId = m01;
shapes = (
{
closed = 1;
nodes = (
(238,1071,o),
(297,1130,o),
(297,1203,c),
(269,1203,l),
(269,1146,o),
(221,1099,o),
(165,1099,cs),
(106,1099,o),
(58,1146,o),
(58,1203,c),
(30,1203,l),
(30,1130,o),
(89,1071,o),
(165,1071,cs)
);
}
);
width = 327;
}
);
unicode = 728;
},
{
glyphname = macron;
kernLeft = "20";
kernRight = "20";
lastChange = "2024-04-18 09:29:42 +0000";
layers = (
{
anchors = (
{
name = _top;
pos = (162,984);
}
);
layerId = m01;
shapes = (
{
closed = 1;
nodes = (
(297,1144,l),
(297,1172,l),
(30,1172,l),
(30,1144,l)
);
}
);
width = 327;
}
);
unicode = 175;
},
